<?xml version="1.0" encoding="utf-8"?>
<!-- Generator: Adobe Illustrator 25.2.3, SVG Export Plug-In . SVG Version: 6.00 Build 0)  -->
<svg version="1.1" id="Layer_1" xmlns="http://www.w3.org/2000/svg" xmlns:xlink="http://www.w3.org/1999/xlink" x="0px" y="0px"
	 viewBox="0 0 122.9 122.9" style="enable-background:new 0 0 122.9 122.9;" xml:space="preserve">
<style type="text/css">
	.st0{fill:#010D21;}
</style>
<path class="st0" d="M0,61.4L0,61.4L0,61.4c0,17,6.9,32.3,18,43.4c11.1,11.1,26.5,18,43.4,18v0h0h0v0c17,0,32.3-6.9,43.4-18
	s18-26.5,18-43.4h0v0v0h0c0-17-6.9-32.3-18-43.4C93.8,6.9,78.4,0,61.4,0v0h0l0,0v0C44.5,0,29.1,6.9,18,18S0,44.5,0,61.4L0,61.4
	L0,61.4L0,61.4z M58.1,42.7c2-1.9,5.1-1.9,7,0.1c0.1,0.1,0.1,0.1,0.2,0.2l22.1,21.6c2,1.9,2,5,0.1,7c-1.9,2-5,2-7,0.1L61.5,53.2
	l-19,18.5l0,0c-2,1.9-5.1,1.9-7-0.1c-1.9-2-1.9-5.1,0.1-7L58.1,42.7"/>
</svg>
