<?xml version="1.0" encoding="utf-8"?>
<!-- Generator: Adobe Illustrator 25.2.3, SVG Export Plug-In . SVG Version: 6.00 Build 0)  -->
<svg version="1.1" id="Layer_1" xmlns="http://www.w3.org/2000/svg" xmlns:xlink="http://www.w3.org/1999/xlink" x="0px" y="0px"
	 viewBox="0 0 2500 1400" style="enable-background:new 0 0 2500 1400;" xml:space="preserve">
<style type="text/css">
	.st0{fill-rule:evenodd;clip-rule:evenodd;fill:#CC2229;}
	.st1{fill-rule:evenodd;clip-rule:evenodd;fill:#FFFFFF;}
</style>
<g>
	<path class="st0" d="M1250,124c618.3,0,1139.7,249.8,1139.7,576c0,326.1-521.4,575.9-1139.7,575.9
		C631.7,1276,110.3,1026.1,110.3,700C110.3,373.9,631.7,124,1250,124L1250,124z M1250,156.1C627.1,156.1,142.4,407.6,142.4,700
		c0,292.4,484.7,543.9,1107.6,543.9S2357.6,992.4,2357.6,700C2357.6,407.6,1872.9,156.1,1250,156.1L1250,156.1z"/>
	<path class="st0" d="M1250,218.9c573.1,0,1037.7,215.4,1037.7,481.2c0,265.7-464.6,481.1-1037.7,481.1
		c-573.1,0-1037.7-215.4-1037.7-481.1C212.3,434.3,676.9,218.9,1250,218.9z"/>
	<path class="st1" d="M2104.9,929.6c16.9,0.1,30.6-13.6,30.6-30.4c0-0.1,0-0.1,0-0.2c0-16.8-13.6-30.5-30.4-30.5c-0.1,0-0.1,0-0.2,0
		c-16.8-0.1-30.5,13.5-30.6,30.3c0,0.1,0,0.2,0,0.3c-0.1,16.8,13.5,30.5,30.3,30.6C2104.7,929.6,2104.8,929.6,2104.9,929.6z
		 M2104.9,921.6c-13.3,0-22.6-9-22.6-22.6c0-13.6,9.3-22.6,22.6-22.6c13.1,0,22.6,8.9,22.6,22.6S2118,921.6,2104.9,921.6z
		 M2111.4,901.4c4.1-0.4,7.2-3.2,7.2-8.7c0-7.5-4.1-9.8-10.9-9.8h-15.5v32h6.7v-13.6h5.2l7.1,13.6h7.9L2111.4,901.4L2111.4,901.4z
		 M2098.9,895.3V889h7.3c3.3,0,6.3,0,6.3,2.8c0,3.5-2.9,3.5-6.3,3.5L2098.9,895.3L2098.9,895.3z M1724.8,924.9h335.4V799.3h-154.4
		V465.2h-180.9L1724.8,924.9L1724.8,924.9z M1362.7,924.9h335.4V799.3h-154.4V465.2h-181V924.9L1362.7,924.9z M971.3,924.9H1318
		V799.3h-175.7V735h164v-81.2h-164v-63h170.2V465.2H971.3L971.3,924.9L971.3,924.9z M674.2,651.8v-80.4h16.8
		c27.5,0,77.7,5.1,77.7,39c0,31.4-46,41.4-73.5,41.4L674.2,651.8L674.2,651.8z M499.6,924.9h248.9c90.8,0,186-32.1,186-125.8
		c0-54.4-24.4-90.7-80.8-108.2v-3.6c45.4-12.7,68.1-52,68.1-91.9c0-105.2-102.4-126.4-202.8-126.4H499.6V924.9z M674.2,736.7h22.3
		c30.3,0,74.6,6.9,74.6,45c0,37.5-40.9,41.9-71.9,41.9h-25.1L674.2,736.7L674.2,736.7L674.2,736.7z"/>
</g>
</svg>
