<svg xmlns="http://www.w3.org/2000/svg" viewBox="0 0 140.79 204.11"><defs><style>.cls-1{fill:#231f20;}</style></defs><g id="Layer_2" data-name="Layer 2"><g id="Layer_1-2" data-name="Layer 1"><path class="cls-1" d="M28.34,165.21l-1.77-4.13H25.16v4.13H21.25V152.32h6.88a4.29,4.29,0,0,1,4.64,4.43,4.16,4.16,0,0,1-2.32,3.9l2.34,4.56Zm-.81-9.64H25.16v2.26h2.37a1.14,1.14,0,1,0,0-2.26Z"/><path class="cls-1" d="M34.36,165.21V152.32h9.78v3.25H38.26v1.51H44v3.24H38.26V162h5.88v3.25Z"/><path class="cls-1" d="M45.88,165.21V152.32h5.76c4.06,0,7.07,2.32,7.07,6.44s-3,6.45-7.05,6.45Zm3.91-3.4h1.85a3,3,0,0,0,3.11-3.05,2.82,2.82,0,0,0-3.09-3H49.79Z"/><path class="cls-1" d="M69.56,165.21l-1.66-7.3-1.66,7.3h-4.1l-3.69-12.89h4.37l1.66,7.89,2-7.89h2.94l1.95,7.89L73,152.32h4.39l-3.7,12.89Z"/><path class="cls-1" d="M84.14,152.11c4,0,7,2.7,7,6.67s-3.07,6.66-7,6.66-7-2.7-7-6.66S80.16,152.11,84.14,152.11Zm0,3.44a3.23,3.23,0,1,0,3.09,3.23A3,3,0,0,0,84.14,155.55Z"/><path class="cls-1" d="M99,152.11c4,0,7,2.7,7,6.67s-3.07,6.66-7,6.66-7.06-2.7-7.06-6.66S95,152.11,99,152.11Zm0,3.44a3.23,3.23,0,1,0,3.09,3.23A3.05,3.05,0,0,0,99,155.55Z"/><path class="cls-1" d="M107.4,165.21V152.32h5.75c4.06,0,7.08,2.32,7.08,6.44s-3,6.45-7.06,6.45Zm3.9-3.4h1.85a3,3,0,0,0,3.11-3.05,2.82,2.82,0,0,0-3.09-3H111.3Z"/><path class="cls-1" d="M21.27,184.54l-.51-1.66H15.82l-.5,1.66H11.08l4.76-12.89h4.91l4.75,12.89Zm-3-9.45-1.47,4.54h2.94Z"/><path class="cls-1" d="M26.2,184.54V171.65H32C36,171.65,39,174,39,178.09s-3,6.45-7,6.45Zm3.9-3.4H32a3,3,0,0,0,3.11-3,2.81,2.81,0,0,0-3.09-3H30.1Z"/><path class="cls-1" d="M43.4,184.54l-4.75-12.89h4.43l2.78,8.68,2.78-8.68h4.43l-4.76,12.89Z"/><path class="cls-1" d="M53.77,184.54V171.65h9.77v3.25H57.67v1.51h5.74v3.24H57.67v1.65h5.87v3.24Z"/><path class="cls-1" d="M74,184.54l-4.76-6.92v6.92h-3.9V171.65h4l4.48,6.5v-6.5h3.9v12.89Z"/><path class="cls-1" d="M82.55,184.54v-9.48H79.09v-3.41h10.8v3.41H86.45v9.48Z"/><path class="cls-1" d="M91.29,171.65h4v7.46a2.24,2.24,0,0,0,4.47,0v-7.46h4v7.58c0,3.21-1.84,5.54-6.19,5.54s-6.2-2.33-6.2-5.52Z"/><path class="cls-1" d="M112.86,184.54l-1.78-4.13h-1.41v4.13h-3.9V171.65h6.88a4.29,4.29,0,0,1,4.64,4.43A4.16,4.16,0,0,1,115,180l2.34,4.56Zm-.81-9.64h-2.38v2.26h2.38a1.14,1.14,0,1,0,0-2.26Z"/><path class="cls-1" d="M118.88,184.54V171.65h9.77v3.25h-5.87v1.51h5.74v3.24h-5.74v1.65h5.87v3.24Z"/><path class="cls-1" d="M29.08,197.44c0-4,3.06-6.67,7-6.67a6,6,0,0,1,6,3.75l-3.36,1.57a2.77,2.77,0,0,0-2.59-1.88,3.24,3.24,0,0,0,0,6.46,2.77,2.77,0,0,0,2.59-1.88L42,200.34a6.13,6.13,0,0,1-6,3.77C32.14,204.11,29.08,201.4,29.08,197.44Z"/><path class="cls-1" d="M46.11,203.87v-5.12L41.28,191h4.39l2.39,4.34L50.42,191h4.39L50,198.75v5.12Z"/><path class="cls-1" d="M54,197.44c0-4,3.05-6.67,7-6.67a6.07,6.07,0,0,1,6,3.75l-3.37,1.57A2.75,2.75,0,0,0,61,194.21a3.24,3.24,0,0,0,0,6.46,2.75,2.75,0,0,0,2.59-1.88L67,200.34a6.15,6.15,0,0,1-6,3.77C57.09,204.11,54,201.4,54,197.44Z"/><path class="cls-1" d="M68.21,203.87V191h3.9v9.48H77v3.4Z"/><path class="cls-1" d="M78.57,203.87V191h3.9v12.88Z"/><path class="cls-1" d="M93.22,203.87,88.47,197v6.91H84.56V191h4l4.49,6.49V191H97v12.88Z"/><path class="cls-1" d="M105.46,190.77a6.07,6.07,0,0,1,5.66,3.17l-3.29,1.68a2.66,2.66,0,0,0-2.37-1.41,3.23,3.23,0,0,0,0,6.46,3.7,3.7,0,0,0,2.1-.58v-.56h-2.49v-3.21h6.28v5.18a7.66,7.66,0,0,1-5.89,2.61c-3.91,0-7.09-2.55-7.09-6.67S101.55,190.77,105.46,190.77Z"/><path class="cls-1" d="M133.09,71v-.69a3.81,3.81,0,0,1,1.25-3s0,0,0,0a9.76,9.76,0,0,1,4.32-1.86h0c1.21-.29,2.11-.53,2.07-1a.26.26,0,0,0,0-.11c-.05-.45-.19-1.9-.23-2.11-.16-1.47-7.29.88-8.66-3.8a3.81,3.81,0,0,0-.15-.65v0a.18.18,0,0,0,0-.1v0s0,0,0-.19c-1.25-5.29,6.75-6,6.28-7.49l-.69-2.12c-.47-1.44-7.28,2.57-9.43-2.27,0-.08-.07-.16-.11-.25a.55.55,0,0,0-.09-.19.46.46,0,0,0-.08-.19.49.49,0,0,0,0-.11c-2.06-4.79,5.4-7.16,4.64-8.46L131,34.37c-.76-1.32-6.68,4.12-9.77-.35-.1-.14-.13-.18-.12-.15h0a.08.08,0,0,0,0-.08s0,0,0,0,0,0,0,0c-.1-.16-.23-.32-.34-.48a3.84,3.84,0,0,1-.21-.4s0,0,0,0a3.58,3.58,0,0,1-.34-2.21v0c.45-3,4.31-5.52,3.53-6.38l-.17-.17c-.35-.41-1.2-1.34-1.32-1.49-1-1.12-5.65,5.4-9.61,1.71l-.13-.13h0v0l-.07-.05h0l-.14-.12s0,0,0-.05l0,0,0,0,0,0c-3.82-3.55,2-8.75.84-9.62L111,12.84c-1.24-.89-4.43,6.48-9.07,3.66l-.18-.1a.2.2,0,0,0-.11-.06.54.54,0,0,0-.16-.1c-4.75-2.61,0-9-1.35-9.67l-2-.92c-1.35-.59-2.9,6.87-7.72,5.59-.12,0-.25-.09-.38-.12a.55.55,0,0,0-.13,0,.1.1,0,0,0-.07,0,5.9,5.9,0,0,0-.75-.24l-.07,0c-4.43-1.89-1.37-8.7-2.82-9L84,1.32c-1.48-.32-1.42,7.52-6.61,7l-.11,0H77a.23.23,0,0,0-.12,0l-.45-.05C71.32,7.6,73,0,71.51,0H69.27c-1.2,0-.33,5-2.64,7.2a3.67,3.67,0,0,1-2.25,1.06l-.49.05a.22.22,0,0,0-.11,0h-.19a.3.3,0,0,0-.13,0c-5.25.55-5.19-7.36-6.67-7l-2.18.47c-1.45.29,1.62,7.09-2.8,9h-.06a5.53,5.53,0,0,0-.81.28h0s-.06,0-.13,0a3.22,3.22,0,0,0-.5.16C45.55,12.4,44,5.06,42.68,5.65l-2,.92c-1.38.62,3.35,7-1.29,9.64a.59.59,0,0,0-.16.08l-.08.06a.19.19,0,0,0-.1,0,.5.5,0,0,0-.17.1C34.19,19.32,31,12,29.76,12.84l-.5.37L28,14.16c-1,.76,3.16,4.7,1.9,8.06a3.77,3.77,0,0,1-1.17,1.65s0,0-.05.05l-.15.12h0s0,0-.06.05v0h-.05l-.13.13c-4,3.69-8.58-2.83-9.61-1.71-.15.18-1.34,1.49-1.49,1.66-1,1.1,5.59,4.87,2.95,9-.14.18-.27.36-.38.53,0,0-.05,0-.05.08a3.21,3.21,0,0,0-.39.52c-3.17,3.8-8.76-1.31-9.5,0-.12.21-1,1.74-1.13,1.94-.74,1.3,6.65,3.64,4.69,8.39,0,0,0,0,0,0a.94.94,0,0,0-.06.15.66.66,0,0,0-.09.19.15.15,0,0,0,0,.06s0,.05,0,.08l0,0c-.09.18-.17.34-.24.52-2.27,4.43-8.84.58-9.29,2-.08.22-.63,1.9-.7,2.12-.46,1.4,7,2.16,6.38,6.93a1.25,1.25,0,0,0,0,.19v0s0,0,0,.06a1.21,1.21,0,0,0-.07.37.1.1,0,0,0,0,.07s0,0,0,.06a.18.18,0,0,0,0,.1v0a3.81,3.81,0,0,0-.15.65C7.54,63.05.41,60.7.24,62.17c0,.16-.12,1.11-.19,1.72a4.37,4.37,0,0,1,0,.5c-.13,1.14,4.43.89,6.59,3.06A3.73,3.73,0,0,1,7.7,70.27V71c.09,5.39-7.85,4.48-7.69,6,0,.23.21,2,.23,2.22.16,1.51,7.7-1,8.76,4.22a2,2,0,0,0,.06.23h0v0s0,0,0,0a.07.07,0,0,0,0,.08v0l0,.19c1.25,5.28-6.75,6-6.28,7.49l.69,2.12C4,95,10.78,91,13,95.8l.13.28s0,0,0,0a.13.13,0,0,0,0,.08s0,.05,0,.06a.88.88,0,0,0,.09.2,1.47,1.47,0,0,0,.06.14s0,0,0,0l.09.22c1.63,4.58-5.51,6.87-4.78,8.14.08.13.48.84.79,1.35.16.29.3.52.34.58.66,1.16,5.28-2.86,8.5-.87a4.39,4.39,0,0,1,1,.87,3.21,3.21,0,0,0,.39.52l0,0h0s0,0,0,0,0,0,.05.08a1,1,0,0,0,.12.17c3.28,4.32-3.71,8.26-2.69,9.39.15.18,1.34,1.49,1.49,1.66,1,1.13,5.67-5.41,9.63-1.69.11.11.15.14.14.12h0s0,.05.06.07h0s0,0,0,.06h0s0,0,0,0l.05,0c4.11,3.54-1.91,8.86-.68,9.75l1.8,1.31c1.22.88,4.33-6.24,8.86-3.75l1,.54s0,0,0,0l.08,0a3.87,3.87,0,0,1,1.08,1,4.89,4.89,0,0,1,.6,3.48c-.33,2.34-1.52,4.54-.73,4.9.21.1,1.84.82,2,.9,1.32.6,2.85-6.62,7.49-5.62h0s.05,0,.06,0q.61.21,1.23.39c4.82,1.73,1.64,8.77,3.1,9.09l2.18.46c1.49.31,1.41-7.66,6.75-7h.24a.44.44,0,0,0,.16,0h.16a.65.65,0,0,1,.21,0h.07l.21,0c2.77.5,3.41,3.12,3.73,5.28.25,1.6.33,2.94,1,2.94h2.24c.92,0,.65-2.86,1.47-5.21a4.07,4.07,0,0,1,3.46-3c.15,0,.28,0,.41,0a.47.47,0,0,0,.16,0h.34c5.23-.52,5.17,7.34,6.64,7l2.19-.46c1.46-.32-1.73-7.37,3.1-9.09.34-.11.68-.21,1-.33,4.9-1.4,6.46,6.14,7.82,5.54l2-.91c1.12-.5-1.71-4.71-.46-7.72h0l1.15-1.5a5.23,5.23,0,0,1,.52-.35l.78-.45c4.54-2.52,7.67,4.63,8.88,3.74l1.81-1.31c1.23-.89-4.79-6.21-.68-9.75l0,0s0,0,0,0h0c.06-.06.09-.08,0-.06h0s0,0,.07-.07h0s0,0,.15-.12c4-3.72,8.61,2.82,9.63,1.69.15-.17,1.34-1.48,1.49-1.66,1-1.13-6-5.06-2.7-9.38l.13-.18s0,0,0-.08v0s0,0,.09-.1l0,0,0,0c3.1-4.41,9,1,9.75-.32l1.11-1.93c.76-1.31-6.67-3.66-4.65-8.44a.61.61,0,0,0,.05-.12.56.56,0,0,0,.08-.2.55.55,0,0,0,.09-.19c.05-.1.09-.19.13-.29,2.17-4.78,8.94-.8,9.41-2.23l.69-2.12c.47-1.45-7.53-2.21-6.28-7.49,0-.13,0-.18,0-.19a0,0,0,0,0,0,0,.07.07,0,0,0,0-.08s0,0,0,0h0a2,2,0,0,0,.06-.23c1.06-5.24,8.6-2.71,8.76-4.22,0-.23.21-2,.23-2.22C140.94,75.43,133,76.34,133.09,71Zm-13.2-26.3,0,.09a55.63,55.63,0,0,1,6.36,25.91,57.43,57.43,0,0,1-.71,8.85,7.48,7.48,0,0,1-2.16,3.8c-1.93,1.76-4.78,1.23-5.51,1l-1.74-.55a51.65,51.65,0,0,0,2.3-16.19c.14-9.61-3.61-18.85-9.58-26.27l.67-.61a5.93,5.93,0,0,1,4.59-1.44,6.69,6.69,0,0,1,4,2.45c.54.89,1.09,1.77,1.57,2.7A.46.46,0,0,1,119.89,44.66ZM69.5,110.75l-.24-1.9c6.24.36,12.5-.42,18-3.57.33-.17.63-.37.94-.55l1,1.88c.66,1.25,1.85,3.42,3,5.52a44.06,44.06,0,0,1-22,5.06C70,115.07,69.75,112.88,69.5,110.75Zm20.9-7.44c4.73-3.32,8.41-7.85,12-12.43a33.09,33.09,0,0,0,3.35-7.09c1.32.4,2.61.85,3.8,1.31a33.36,33.36,0,0,0,4.2,1.4,47,47,0,0,1-18.89,24A57.45,57.45,0,0,0,90.4,103.31ZM41.82,33.75c1.6,1.61,3.15,3.25,4.58,5a41.23,41.23,0,0,1,3.38,4.58l.81,1.17a39,39,0,0,0-4.2,4.33,38.24,38.24,0,0,0-8.34,18.76c-2.73-.3-5.44-.62-8.1-1l-.42-.08c-1.68-.34-3.48-.83-5.22-1a41.79,41.79,0,0,1,10.9-25.45A41.43,41.43,0,0,1,41.82,33.75ZM81.29,77,83,77.8a11.41,11.41,0,0,1-.75,1.48A19.54,19.54,0,0,0,81,82.07a13,13,0,0,1-9.77,6.71A15.36,15.36,0,0,1,66,88.59a6.56,6.56,0,0,1,.17-.73c.43-1.35.85-2.83,1.17-4.22.13-.56.24-1.13.36-1.67s.19-.9.28-1.34a5.43,5.43,0,0,0,6.87-.75,13.71,13.71,0,0,0,3-4.46,20.52,20.52,0,0,0,.19-5.25A8.56,8.56,0,0,0,68.28,62a7.09,7.09,0,0,0-2.66.75,13.06,13.06,0,0,0-2.05-5.52,14.18,14.18,0,0,1,18.52,6.23c-.74.8-1.49,1.57-2.26,2.28a.79.79,0,0,0-.13,1.09.81.81,0,0,0,1.13.18c.72-.57,1.41-1.18,2.08-1.81a16.7,16.7,0,0,1,1.14,5.09A18.34,18.34,0,0,1,83.64,76l-1.76-.53A.81.81,0,0,0,81.29,77ZM63.51,95.68l.09,1.14a22.37,22.37,0,0,1-10.39-4.68,18.07,18.07,0,0,1-4-5l2.66-.73a.8.8,0,0,0-.16-1.59,23.53,23.53,0,0,0-3.41.46,32.89,32.89,0,0,1-2.45-10.8,18.75,18.75,0,0,1-.07-4c2.65.22,5.28.48,7.89.93,0,7.43,2.58,15.77,10,18.25a6.64,6.64,0,0,0-.22,1.18A31.23,31.23,0,0,0,63.51,95.68ZM53.72,69.47a64.73,64.73,0,0,0-7.68-1,23,23,0,0,1,6.28-11.84,27.74,27.74,0,0,1,4.45-3.77c1.07,1.32,2.17,2.61,3.3,3.85a14.48,14.48,0,0,0-6.18,10.89C53.81,68.18,53.76,68.82,53.72,69.47Zm-8.59-5.38A20,20,0,0,0,44,68.21c-.19,0-.38,0-.53-.07l-3.24-.35a35.6,35.6,0,0,1,7.82-17.64,36.13,36.13,0,0,1,3.75-4q1.8,2.56,3.72,5.06A27.94,27.94,0,0,0,45.13,64.09Zm-1.38,6.23a38.84,38.84,0,0,0,1.32,12.05,24.24,24.24,0,0,0,1.11,3.31l-.88.2c-1.25.31-2.51.67-3.75,1.09a48.42,48.42,0,0,1-1.63-12,34.2,34.2,0,0,1,.08-5Zm3.38,17.37c3.44,6.46,9.53,9.8,16.64,11,0,.45.08.9.14,1.34a19.37,19.37,0,0,0,1,4.38,13.78,13.78,0,0,1,.67,2.11c-1.83-.28-3.63-.62-5.38-1-9.58-2.18-15.09-8.28-17.89-16.07A47.29,47.29,0,0,1,47.13,87.69Zm17.25-.6c-.08.33-.16.65-.24,1-5.3-2-8.38-7.37-9-14a20.1,20.1,0,0,1-.23-2.45c.59.11,1.18.21,1.76.35a.8.8,0,0,0,.39-1.56l-2.15-.61a12.09,12.09,0,0,1,2.84-7.55,16.13,16.13,0,0,1,3.77-3.86,8.47,8.47,0,0,1,1.1,1.79,13.41,13.41,0,0,1,.84,4.1,8.12,8.12,0,0,0-1.93,8.5,16,16,0,0,0,4.83,6.78c-.14.47-.28.94-.42,1.43-.1.32-.2.64-.29,1C65.28,83.46,64.7,85.7,64.38,87.09Zm6-17a7.14,7.14,0,0,0-3-3.7,2.21,2.21,0,0,1-1.58-2,7.15,7.15,0,0,1,2.74-1.15c4.1-.92,8.62,2.62,8.35,6.91-.06,2.14-1.29,4.1-1.53,6.19s-1.77,4.14-3.78,4.24a6.8,6.8,0,0,1-3.35-1.15c.16-.72.33-1.43.53-2.14a.87.87,0,0,0-.58-1,.78.78,0,0,0-1,.6c-.13.51-.27,1-.41,1.45a17,17,0,0,1-3.81-6,6.46,6.46,0,0,1,1-6.22c.06.14.09.29.17.44a4.54,4.54,0,0,0,2,1.67,16.11,16.11,0,0,1,2.74,2.58.83.83,0,0,0,.92.29A.8.8,0,0,0,70.35,70.06Zm13-8c-3.21-5.52-9.28-9.26-16-8.19a15.73,15.73,0,0,0-5.23,1.59c-1.15-1.27-2.23-2.58-3.28-3.91a25,25,0,0,1,10.85-3.32,27.79,27.79,0,0,1,19.94,7.6L89.4,56A43.43,43.43,0,0,0,83.37,62ZM69.62,46.37a27.38,27.38,0,0,0-12,3.56c-1.34-1.76-2.63-3.56-3.9-5.4A30.73,30.73,0,0,1,70.4,37.68c.14.51.29,1,.42,1.52a.83.83,0,0,0,1.6.09,7.55,7.55,0,0,0,.2-1.68C81.91,37.7,91,42.15,97.43,49c-2.21,1.95-4.38,3.95-6.63,5.83A29.05,29.05,0,0,0,69.62,46.37Zm2.87-10.58c-.28-1.91-.93-3.79-1-5.7a11.16,11.16,0,0,1,0-3.05c.15-.82.46-1.63.51-2.3,0,0,.3,0,.75,0a47.56,47.56,0,0,1,28.47,11.15A45.14,45.14,0,0,1,106,40.5c-.89.91-1.74,1.83-2.56,2.75a37.8,37.8,0,0,1-3.82,3.87l-1,.89C91.89,40.74,82.39,36,72.49,35.79Zm-3.36-4.51a16.17,16.17,0,0,0,.76,4.6,32.69,32.69,0,0,0-17.35,7c-.22-.34-.45-.67-.68-1a43.6,43.6,0,0,0-3.35-4.61c-1.41-1.72-2.94-3.38-4.52-5A47.37,47.37,0,0,1,69.73,24.7a14.85,14.85,0,0,1-.39,2.89A8.68,8.68,0,0,0,69.13,31.28Zm-43,36.94c1.06.26,2.14.47,3.2.65,2.81.49,5.64.77,8.47,1a36.3,36.3,0,0,0-.12,5.21,49,49,0,0,0,1.73,12.7,17.64,17.64,0,0,0-5.87,3.85s-.05.05-.08.07c-1.1.9-2.09,1.89-3.11,2.81-.59-1.1-1.15-2.23-1.64-3.4a56.78,56.78,0,0,1-4.54-23.06C24.81,68.1,25.47,68.15,26.12,68.22ZM34.9,94.73l.8-.78a17.37,17.37,0,0,1,4.58-3.49c3.1,8.4,9.18,15,19.45,17.1,2.05.41,4.15.76,6.26,1,.11.66.21,1.31.29,2,.22,2,.37,4,.61,5.68,0,.26,0,.51.06.77a54.87,54.87,0,0,1-12-2.48,42.25,42.25,0,0,1-22.88-17C33.08,96.6,34,95.64,34.9,94.73Zm31.79,2.59c-.32-2-.69-4.24-.88-6.07,0-.31-.06-.58-.08-.86,0-.06,0-.13,0-.2A16.07,16.07,0,0,0,77.84,88a23.56,23.56,0,0,0,4.9-4.77,7.12,7.12,0,0,0,1.75-3c.14-.51.25-1,.38-1.56a74,74,0,0,0,8.82,3.43l.09,0c-.19.36-.38.72-.58,1.07-1.33,2.1-2.12,4.49-3.71,6.47-4.46,4.92-10.91,8.24-17.61,8C70.17,97.62,68.43,97.52,66.69,97.32ZM85.3,76.55a26.73,26.73,0,0,0,.46-6.43,17.19,17.19,0,0,0-1.48-6.29,57.64,57.64,0,0,1,6.5-6l.48-.36a21.67,21.67,0,0,1,5.33,10.75,23.64,23.64,0,0,0-4.34.69.81.81,0,0,0,.2,1.59l4.38-.17c0,.4.08.8.08,1.22a20.54,20.54,0,0,1-1.81,7.79A84,84,0,0,1,85.3,76.55Zm7.1-20c2.33-1.8,4.5-3.74,6.71-5.64a32.15,32.15,0,0,1,7,15.41,23.06,23.06,0,0,1-2.38.94A27.14,27.14,0,0,1,98,68.1,24.46,24.46,0,0,0,92.4,56.55Zm5.94,15c0-.43-.07-.84-.11-1.27l3.1-.06a14.8,14.8,0,0,0,5.08-1.36c0,.62.06,1.23,0,1.86a31.3,31.3,0,0,1-1.58,9.44,27.86,27.86,0,0,0-5.88-.8,10.34,10.34,0,0,0-1.56.14A32.12,32.12,0,0,0,98.34,71.54Zm8.3,9.07a40.91,40.91,0,0,0,1.16-9.9c0-.83,0-1.64-.11-2.45,1.71-.85,3.37-1.81,5-2.6a3.57,3.57,0,0,1,2.38-.36.81.81,0,0,0,.31-1.58,5.74,5.74,0,0,0-1.69-.28,22.06,22.06,0,0,0-6.33,2.29A34.51,34.51,0,0,0,100.21,50c.35-.3.7-.6,1.06-.89a40.6,40.6,0,0,0,4-3.9c.84-.91,1.65-1.8,2.48-2.65,5.77,7.08,9.42,15.87,9.38,25.1a59,59,0,0,1-2.33,15.71C112,82.39,109.37,81.38,106.64,80.61Zm1.72-50.95a7.38,7.38,0,0,1,1.9,4.78,5.37,5.37,0,0,1-1.65,3.67c-.5.39-1,.8-1.44,1.21a50.67,50.67,0,0,0-33.6-16.54,12.91,12.91,0,0,1-1.52-.12c0-.22,0-.46,0-.7h0v-.11a6.56,6.56,0,0,1,1.46-4.45c1.58-2,4.49-2,5.3-2A55.65,55.65,0,0,1,108.36,29.66ZM62,15.42a7.65,7.65,0,0,1,4.58,1,5.63,5.63,0,0,1,2,2.42c.46,1.82.92,3.54,1,3.77v0a49.41,49.41,0,0,0-27.11,7.78A7.52,7.52,0,0,1,41,26.09a5.4,5.4,0,0,1,2.51-4.42l0,0A55.36,55.36,0,0,1,62,15.42ZM30.67,31.34a7.65,7.65,0,0,1,4.66-1.83,6.05,6.05,0,0,1,3.75,1.55l1,1a44,44,0,0,0-6.74,6.23A44.11,44.11,0,0,0,21.92,65.19s-3.52-.46-5.25-2.85a5.35,5.35,0,0,1-.85-3.8c.14-.61.27-1.22.42-1.82,0-.09.06-.15.06-.15l0,.07A55.85,55.85,0,0,1,30.67,31.34Zm-16,43.31a7.67,7.67,0,0,1,1.61-5,6.08,6.08,0,0,1,4.85-1.85h.23l.41,0-.07,0h.1a58.2,58.2,0,0,0,4.78,24.2,41.94,41.94,0,0,0,2,4l-.27.17a7.51,7.51,0,0,1-5,.58c-2.33-.59-3.71-3.05-4.18-4A55.56,55.56,0,0,1,14.63,74.65Zm14.71,33.93a8.74,8.74,0,0,1-1.63-5,5.58,5.58,0,0,1,2.13-4.19l.48-.36a43.64,43.64,0,0,0,24.07,17.47,61.13,61.13,0,0,0,12.7,2.32v0a7.55,7.55,0,0,1-1.75,5c-1.67,1.91-4.41,1.81-5.26,1.73A55.67,55.67,0,0,1,29.34,108.58Zm37.81-8.26c-.05-.31-.1-.6-.13-.92a2.68,2.68,0,0,0,0-.3,44.17,44.17,0,0,0,4.9.12c9.19.2,16.53-6,22.28-12.5a18.63,18.63,0,0,0,2.24-4c.19,0,.38,0,.57,0a18.72,18.72,0,0,1,6.8.55,61.09,61.09,0,0,1-3.15,6.58c-2.27,5.1-6.39,9.25-11,12.36-.9-1.18-1.84-2.34-2.83-3.45a.81.81,0,0,0-1.29,1c.7,1.25,1.37,2.52,2,3.79-.31.18-.62.38-.94.55-5.4,3-11.53,3.45-17.58,2.89C68.63,104.58,67.58,102.7,67.15,100.32Zm10,25.83a8.73,8.73,0,0,1-5-1.86,5.32,5.32,0,0,1-1.74-3.07c0-.36,0-.73-.08-1.07s0-.81-.07-1.21a43.82,43.82,0,0,0,21.15-4.67c.49-.25,1-.54,1.42-.8.07.12.27.52.33.65l.3.57a7,7,0,0,1,.39,4.26,5.93,5.93,0,0,1-3.44,3.93A55,55,0,0,1,77.16,126.15Zm28.13-11.82a8.81,8.81,0,0,1-5.15,1.3,5.78,5.78,0,0,1-4.36-3.17l.07.19c-.13-.26-.23-.53-.36-.8a51.07,51.07,0,0,0,19.65-25l1.43.37a7.6,7.6,0,0,1,3.83,3.24c1.48,2.63-.31,5.77-.31,5.77l.07-.1A56.14,56.14,0,0,1,105.29,114.33Z"/></g></g></svg>