<svg xmlns="http://www.w3.org/2000/svg" viewBox="0 0 307.06 308.21"><defs><style>.cls-1{fill:#231f20;}</style></defs><g id="Layer_2" data-name="Layer 2"><g id="Layer_1-2" data-name="Layer 1"><path class="cls-1" d="M290.26,154.76v-1.5A8.3,8.3,0,0,1,293,146.8s0,0,0,0c2.56-2.36,6.4-3.3,9.42-4,0,0,.07,0,.1,0,2.64-.63,4.6-1.16,4.5-2.28a.64.64,0,0,0,0-.25c-.1-1-.42-4.14-.49-4.6-.35-3.2-15.91,1.93-18.9-8.29a10.22,10.22,0,0,0-.32-1.41s0,0,0-.07a.39.39,0,0,0,0-.21s0,0,0-.06a1.35,1.35,0,0,0-.08-.41c-2.72-11.52,14.73-13.17,13.7-16.33-.16-.48-1.35-4.15-1.5-4.63-1-3.14-15.88,5.61-20.57-5-.08-.17-.15-.35-.25-.53a1.09,1.09,0,0,0-.18-.42,1.75,1.75,0,0,0-.17-.43,2.14,2.14,0,0,0-.1-.22c-4.5-10.46,11.77-15.61,10.13-18.46L285.78,75c-1.66-2.88-14.56,9-21.3-.75-.22-.32-.3-.4-.27-.33a0,0,0,0,0,0,0,.2.2,0,0,0-.1-.18s0-.07-.07-.07a0,0,0,0,0,0,0c-.21-.35-.49-.7-.74-1s-.31-.6-.45-.88c0,0,0,0-.07-.07a7.84,7.84,0,0,1-.74-4.81v0c1-6.64,9.42-12,7.69-13.91a2.24,2.24,0,0,0-.35-.39c-.77-.88-2.63-2.91-2.88-3.23-2.25-2.46-12.33,11.77-21,3.72l-.29-.28-.1,0v0l-.14-.1v0c-.11-.07-.21-.17-.32-.24s-.07-.07-.1-.11l-.07-.07-.07-.07s-.07-.07-.11-.07c-8.33-7.73,4.46-19.08,1.83-21-.42-.31-3.55-2.56-3.94-2.88-2.7-1.93-9.66,14.13-19.78,8l-.38-.21a.62.62,0,0,0-.25-.14,1.13,1.13,0,0,0-.35-.21c-10.37-5.69.07-19.75-3-21.08-.46-.22-4-1.8-4.47-2-2.95-1.3-6.32,15-16.83,12.19-.28-.1-.56-.21-.84-.28a1.61,1.61,0,0,0-.28-.1.2.2,0,0,0-.14,0c-.56-.21-1.13-.38-1.65-.52-.07,0-.11-.07-.14-.07-9.67-4.11-3-19-6.15-19.61l-4.75-1c-3.23-.7-3.09,16.41-14.4,15.36-.07,0-.18,0-.25,0s-.38,0-.59,0a.55.55,0,0,0-.25,0l-1-.11C155.55,16.58,159.24,0,156,0h-4.88c-2.63,0-.74,10.79-5.76,15.71A8.25,8.25,0,0,1,140.41,18l-1,.11a.53.53,0,0,0-.25,0,2,2,0,0,0-.42,0,.66.66,0,0,0-.28,0C127,19.43,127.09,2.18,123.86,2.88l-4.74,1c-3.17.63,3.51,15.46-6.12,19.61h0s-.07,0-.11,0a15,15,0,0,0-1.75.6H111c-.07,0-.15.07-.29.1-.38.11-.7.21-1.08.36C99.34,27.05,96,11,93.08,12.33c-.46.21-4,1.79-4.46,2-3,1.33,7.31,15.24-2.81,21a2.19,2.19,0,0,0-.35.17s-.11.07-.18.14a.31.31,0,0,0-.21.11.94.94,0,0,0-.39.21c-10.12,6.15-17.07-9.91-19.78-8-.14.11-.56.43-1.09.81L61,30.88c-2.29,1.66,6.88,10.26,4.14,17.57a8.26,8.26,0,0,1-2.56,3.62s-.07,0-.11.11l-.31.24v0l-.14.1v0s-.07,0-.11,0a2.46,2.46,0,0,0-.28.28C53,61,42.87,46.73,40.62,49.19c-.31.39-2.91,3.23-3.23,3.62-2.18,2.39,12.19,10.61,6.43,19.71A10.56,10.56,0,0,0,43,73.68s-.11.11-.11.18A8.18,8.18,0,0,0,42,75c-6.92,8.29-19.12-2.85-20.73,0-.25.45-2.18,3.79-2.46,4.21C17.22,82,33.35,87.1,29.06,97.47c0,0,0,0,0,.07s-.11.21-.14.31a2.3,2.3,0,0,0-.18.43.22.22,0,0,0,0,.14c0,.07-.07.1-.07.17s-.07.07-.07.11A7.59,7.59,0,0,0,28,99.82c-5,9.66-19.29,1.27-20.27,4.36-.18.49-1.37,4.14-1.52,4.64-1,3.05,15.18,4.7,13.92,15.1a1.68,1.68,0,0,0-.07.43v0s0,.11,0,.14a3.28,3.28,0,0,0-.14.81.25.25,0,0,0,0,.14.2.2,0,0,0,0,.14.51.51,0,0,0,0,.21s0,0,0,.07a10.17,10.17,0,0,0-.31,1.41c-3,10.22-18.56,5.09-18.91,8.29,0,.35-.28,2.42-.42,3.76a10.42,10.42,0,0,1-.1,1.09c-.29,2.49,9.66,1.93,14.37,6.67a8.22,8.22,0,0,1,2.42,6.15v1.49C17,166.5-.33,164.51,0,167.81c.06.5.46,4.34.51,4.84.35,3.29,16.81-2.23,19.12,9.21,0,.17.06.33.11.5h0l0,0s0,0,0,.06,0,.11,0,.18a.17.17,0,0,0,0,.05,1.3,1.3,0,0,0,.07.4c2.72,11.53-14.72,13.18-13.69,16.34.15.48,1.34,4.15,1.5,4.62,1,3.14,15.8-5.56,20.53,4.89a6.67,6.67,0,0,0,.29.61s0,.07.07.11,0,.1.07.17a.22.22,0,0,0,0,.14,2.53,2.53,0,0,0,.18.42,3.09,3.09,0,0,0,.14.32s0,.07,0,.11.14.31.21.49c3.55,10-12,15-10.43,17.74.17.28,1.05,1.83,1.72,2.95.35.64.67,1.13.74,1.27,1.44,2.53,11.52-6.26,18.55-1.9a9.64,9.64,0,0,1,2.18,1.9,8.84,8.84,0,0,0,.84,1.12l0-.07h0s0,0,0,.07.07.11.11.18.19.25.28.38c7.14,9.42-8.1,18-5.88,20.48L40.64,259c2.22,2.47,12.37-11.81,21-3.69.26.24.34.31.32.27l0,0c0,.07.1.1.14.14h0l0,0c-.08-.05,0,0,.1.13l0,0,.05,0,.11.1c9,7.73-4.17,19.31-1.48,21.26l3.94,2.86c2.65,1.93,9.44-13.6,19.32-8.19.69.4,1.37.78,2.06,1.19,0,0,0,0,.07,0l.18.11a8.83,8.83,0,0,1,2.35,2.28,10.54,10.54,0,0,1,1.3,7.59c-.7,5.1-3.3,9.91-1.58,10.68.46.21,4,1.79,4.46,2,2.88,1.3,6.22-14.44,16.34-12.26l.1,0a.21.21,0,0,1,.15,0c.88.29,1.77.58,2.68.85,10.51,3.77,3.57,19.13,6.76,19.81l4.76,1c3.24.69,3.07-16.7,14.71-15.33l.11,0,.42,0a1,1,0,0,0,.35,0,1.42,1.42,0,0,0,.35,0,2,2,0,0,1,.46.07h.14a4.52,4.52,0,0,0,.46.07c6,1.09,7.45,6.82,8.15,11.53.52,3.48.7,6.39,2.07,6.39H156c2,0,1.41-6.22,3.2-11.35,1.13-3.26,3.23-6.07,7.56-6.64a5.93,5.93,0,0,0,.87-.1,1.11,1.11,0,0,0,.36,0c.21,0,.38,0,.59,0l.15,0c11.41-1.13,11.27,16,14.49,15.33l4.76-1c3.2-.68-3.76-16.06,6.78-19.81l2.2-.71c10.68-3.06,14.08,13.39,17.06,12.06l4.45-2c2.42-1.08-3.74-10.27-1-16.83h0l2.51-3.28a11.11,11.11,0,0,1,1.13-.76c.57-.32,1.13-.64,1.7-1,9.91-5.5,16.72,10.09,19.38,8.16l3.93-2.86c2.69-1.95-10.45-13.53-1.48-21.26l.11-.09s0,0,0,0l0,0c.12-.11.17-.17.1-.12s0,0,0,0h0s.1-.07.14-.14l0,0s.06,0,.32-.27c8.62-8.12,18.76,6.16,21,3.69l3.25-3.61c2.23-2.47-13-11.05-5.88-20.47l.29-.39c.07-.07.1-.11.1-.18l0,0s.06-.06.19-.23l.06-.09a.18.18,0,0,0,0-.07c6.76-9.61,19.6,2.18,21.26-.69l2.43-4.21c1.64-2.84-14.56-8-10.15-18.4a1.39,1.39,0,0,0,.12-.28,1.85,1.85,0,0,0,.17-.42,1.09,1.09,0,0,0,.18-.42,5.89,5.89,0,0,0,.29-.63c4.74-10.42,19.51-1.74,20.53-4.87.15-.47,1.34-4.14,1.5-4.62,1-3.16-16.42-4.81-13.7-16.34a1.53,1.53,0,0,0,.08-.4.43.43,0,0,1,0-.05.13.13,0,0,0,0-.18s0,0,0-.06v0s0,0,0,0c.05-.17.08-.34.12-.51,2.32-11.42,18.77-5.91,19.11-9.2,0-.5.46-4.34.51-4.84C307.4,164.51,290.09,166.5,290.26,154.76ZM261.49,97.4l.1.21a121.21,121.21,0,0,1,13.88,56.5,122.79,122.79,0,0,1-1.56,19.3,16.39,16.39,0,0,1-4.71,8.3c-4.21,3.83-10.43,2.67-12,2.29-1.27-.39-2.53-.8-3.79-1.21a112.68,112.68,0,0,0,5-35.32c.31-21-7.87-41.09-20.89-57.29.48-.46,1-.88,1.47-1.32,2-1.57,5.69-3.92,10-3.14a14.65,14.65,0,0,1,8.79,5.34c1.17,2,2.37,3.87,3.43,5.88A1.21,1.21,0,0,1,261.49,97.4ZM151.58,241.56c-.16-1.42-.34-2.78-.52-4.16,13.61.78,27.26-.92,39.17-7.79.71-.37,1.36-.8,2.05-1.19.72,1.37,1.44,2.76,2.17,4.11,1.44,2.72,4,7.44,6.45,12a96.14,96.14,0,0,1-48,11C152.57,251,152.13,246.19,151.58,241.56Zm45.58-16.24c10.33-7.23,18.34-17.13,26.11-27.1a73.66,73.66,0,0,0,7.32-15.46c2.88.87,5.68,1.85,8.27,2.85a70.71,70.71,0,0,0,9.16,3c-8.12,22.46-22.53,40.71-41.19,52.45A124.13,124.13,0,0,0,197.16,225.32ZM91.21,73.6c3.49,3.51,6.87,7.09,10,10.83a93.07,93.07,0,0,1,7.38,10c.59.84,1.18,1.7,1.77,2.55A83.34,83.34,0,0,0,83,147.33C77,146.68,71.12,146,65.32,145c-.31-.07-.59-.1-.91-.17-3.66-.74-7.59-1.81-11.38-2.28,1.6-20.16,9-39.53,23.77-55.51A89.85,89.85,0,0,1,91.21,73.6Zm86.08,94.31c1.27.61,2.53,1.19,3.8,1.78a23.33,23.33,0,0,1-1.64,3.23,42.87,42.87,0,0,0-2.77,6.08,28.23,28.23,0,0,1-21.3,14.64,34,34,0,0,1-11.54-.42,15,15,0,0,1,.36-1.59c1-2.95,1.87-6.18,2.57-9.2.28-1.23.53-2.46.77-3.66.2-1,.41-1.94.61-2.92,4.87,2.66,10.24,3,15-1.63,2.42-2.94,5.31-6,6.43-9.73.83-3.75.56-7.67.42-11.44-.16-10.81-10.33-19.54-21.07-17.92a15.61,15.61,0,0,0-5.82,1.64,28.35,28.35,0,0,0-4.46-12c14.61-7.13,32.32-1,40.38,13.6-1.61,1.73-3.24,3.42-4.93,4.95a1.76,1.76,0,0,0-.28,2.39,1.78,1.78,0,0,0,2.46.39c1.59-1.24,3.09-2.58,4.55-3.94a36.72,36.72,0,0,1,2.5,11.1,40.28,40.28,0,0,1-.91,12.58c-1.27-.4-2.55-.78-3.84-1.15A1.76,1.76,0,0,0,177.29,167.91Zm-38.78,40.76c.07.85.14,1.67.2,2.5-8.3-1.66-16.22-4.68-22.65-10.21a38.87,38.87,0,0,1-8.75-11c2-.54,3.91-1.08,5.8-1.58a1.79,1.79,0,0,0,1.51-1.82,1.75,1.75,0,0,0-1.86-1.65,52.69,52.69,0,0,0-7.44,1A72.2,72.2,0,0,1,100,162.34a41.64,41.64,0,0,1-.14-8.64c5.77.47,11.51,1.05,17.2,2,0,16.22,5.62,34.4,21.78,39.8a16.25,16.25,0,0,0-.47,2.58C138,201.61,138.37,205.37,138.51,208.67Zm-21.35-57.16c-3.49-1-11-1.67-16.75-2.26a50.14,50.14,0,0,1,13.69-25.83,61.73,61.73,0,0,1,9.72-8.22c2.33,2.88,4.72,5.69,7.2,8.4a31.61,31.61,0,0,0-13.49,23.76C117.36,148.71,117.25,150.1,117.16,151.51ZM98.43,139.77a43.54,43.54,0,0,0-2.46,9l-1.17-.14-7-.77A80.68,80.68,0,0,1,113,100.7c2.62,3.72,5.32,7.42,8.1,11A61,61,0,0,0,98.43,139.77Zm-3,13.59c-.65,8.8.78,17.83,2.88,26.29a53,53,0,0,0,2.42,7.21l-1.91.45c-2.73.67-5.48,1.47-8.19,2.38a105.39,105.39,0,0,1-3.56-26.09,75.1,75.1,0,0,1,.18-10.82Zm7.36,37.9c7.52,14.08,20.79,21.37,36.3,24,.1,1,.18,1.95.31,2.91a41.52,41.52,0,0,0,2.25,9.56,29.28,29.28,0,0,1,1.45,4.6c-4-.6-7.9-1.35-11.73-2.18-20.9-4.75-32.9-18-39-35A96.63,96.63,0,0,1,102.78,191.26ZM140.41,190c-.18.71-.34,1.41-.52,2.08-11.56-4.41-18.29-16.09-19.59-30.45a50.85,50.85,0,0,1-.5-5.36c1.28.24,2.57.47,3.85.77a1.76,1.76,0,0,0,.84-3.41l-4.68-1.32c.33-6,2.06-11.8,6.18-16.48a35.22,35.22,0,0,1,8.23-8.4,17.59,17.59,0,0,1,2.39,3.89c1.36,2.73,1.37,5.83,1.85,8.94-4.65,4.78-6.78,12.12-4.21,18.55a34.86,34.86,0,0,0,10.53,14.79c-.31,1-.62,2-.93,3.11-.21.71-.42,1.41-.63,2.15C142.38,182,141.11,186.92,140.41,190Zm13-37.14a15.53,15.53,0,0,0-6.6-8.08c-2.29-1.08-3.12-2-3.44-4.26a15.46,15.46,0,0,1,6-2.49c8.95-2,18.82,5.71,18.21,15.07-.12,4.66-2.79,8.95-3.32,13.5s-3.87,9-8.25,9.24a14.76,14.76,0,0,1-7.3-2.51c.35-1.56.71-3.11,1.15-4.66a1.89,1.89,0,0,0-1.26-2.29,1.71,1.71,0,0,0-2.15,1.3c-.28,1.11-.58,2.13-.88,3.16a36.77,36.77,0,0,1-8.32-13,14.12,14.12,0,0,1,2.28-13.58c.13.32.2.65.35,1a10.08,10.08,0,0,0,4.46,3.65c2.18,1.34,4,3.62,6,5.62a1.84,1.84,0,0,0,2,.64A1.77,1.77,0,0,0,153.44,152.81Zm28.39-17.55c-7-12-20.23-20.18-34.89-17.85a34.08,34.08,0,0,0-11.4,3.46c-2.51-2.77-4.87-5.62-7.17-8.52A54.64,54.64,0,0,1,152,105.1c15.5-.84,31.87,5.65,43.48,16.58l-.54.45C189.92,126,185.84,130.73,181.83,135.26Zm-30-34.13a59.91,59.91,0,0,0-26.16,7.76q-4.38-5.76-8.52-11.77c10.47-8.33,23.07-13.93,36.38-14.93.31,1.1.63,2.22.92,3.3a1.81,1.81,0,0,0,3.48.21,15.53,15.53,0,0,0,.44-3.67c20.26.19,40.1,9.9,54.11,24.82-4.81,4.25-9.55,8.62-14.44,12.71C186,107.63,168.83,100.43,151.84,101.13Zm6.25-23.06c-.6-4.18-2-8.27-2.26-12.44a24.41,24.41,0,0,1-.05-6.66c.32-1.78,1-3.55,1.11-5,0,0,.64.07,1.62.09,22.53,1.22,44.75,9.34,62.11,24.32a102.64,102.64,0,0,1,10.49,9.95c-2,2-3.81,4-5.6,6a82,82,0,0,1-8.33,8.43c-.76.63-1.51,1.29-2.26,2C200.42,88.85,179.69,78.44,158.09,78.07Zm-7.32-9.84a35.93,35.93,0,0,0,1.66,10C138.56,79.33,125.51,85,114.6,93.43l-1.49-2.18a94.85,94.85,0,0,0-7.31-10c-3.06-3.75-6.4-7.37-9.86-10.92,16.55-10.87,36.3-16.33,56.14-16.41a33.33,33.33,0,0,1-.84,6.3C150.29,63.12,150.56,65.21,150.77,68.23ZM57,148.8c2.32.56,4.67,1,7,1.41,6.13,1.07,12.3,1.68,18.48,2.19a79.79,79.79,0,0,0-.27,11.36,105.58,105.58,0,0,0,3.78,27.68,38.86,38.86,0,0,0-12.82,8.41c-.07,0-.1.11-.17.14-2.39,2-4.55,4.13-6.77,6.15-1.3-2.42-2.52-4.88-3.59-7.43a123.57,123.57,0,0,1-9.89-50.3C54.12,148.53,55.55,148.63,57,148.8Zm19.15,57.8c.6-.56,1.16-1.12,1.76-1.69a37.32,37.32,0,0,1,10-7.61c6.76,18.31,20,32.67,42.42,37.29,4.47.9,9,1.66,13.66,2.19.23,1.43.46,2.84.63,4.32.49,4.32.8,8.75,1.33,12.41.06.55.09,1.11.13,1.67A119.54,119.54,0,0,1,120,249.76a92.15,92.15,0,0,1-49.9-37.11C72.16,210.68,74.13,208.59,76.11,206.6Zm69.35,5.66c-.71-4.36-1.51-9.24-1.92-13.25-.07-.67-.14-1.26-.18-1.86,0-.14,0-.29,0-.44,9,1.72,18.69.38,26.37-4.87,4.28-2.72,7.4-6.61,10.69-10.41a15.25,15.25,0,0,0,3.81-6.49c.3-1.12.56-2.26.83-3.4A163.3,163.3,0,0,0,204.34,179l.2.05c-.42.79-.83,1.57-1.26,2.35-2.91,4.57-4.63,9.79-8.1,14.1-9.72,10.72-23.79,18-38.4,17.46C153.05,212.92,149.24,212.69,145.46,212.26ZM186,167a57.84,57.84,0,0,0,1-14,37.69,37.69,0,0,0-3.22-13.72c4.59-4.57,8.93-9.33,14.17-13.12.35-.25.69-.52,1-.79a47.48,47.48,0,0,1,11.64,23.46,53,53,0,0,0-9.48,1.49,1.77,1.77,0,0,0,.43,3.49c3.1-.13,6.33-.27,9.56-.39.06.89.17,1.77.17,2.67a44.8,44.8,0,0,1-3.94,17C200.22,171.65,193.17,169.25,186,167Zm15.49-43.61c5.07-3.93,9.82-8.17,14.63-12.31a70.13,70.13,0,0,1,15.31,33.61,47.64,47.64,0,0,1-5.18,2.05,60.34,60.34,0,0,1-12.62,1.85A53.2,53.2,0,0,0,201.53,123.34ZM214.47,156c0-.94-.15-1.84-.22-2.76,2.29-.07,4.57-.12,6.76-.13a32.23,32.23,0,0,0,11.07-3c.08,1.35.13,2.7.12,4.05a68.5,68.5,0,0,1-3.46,20.6,61.68,61.68,0,0,0-12.81-1.74,20.92,20.92,0,0,0-3.41.31A70.25,70.25,0,0,0,214.47,156Zm18.12,19.78a89.07,89.07,0,0,0,2.53-21.6c0-1.79-.1-3.57-.25-5.34,3.73-1.84,7.36-4,10.95-5.67a8,8,0,0,1,5.19-.79,1.76,1.76,0,0,0,.68-3.44,12.53,12.53,0,0,0-3.67-.6c-4.91.67-9.37,2.88-13.82,5A75.1,75.1,0,0,0,218.56,109c.77-.65,1.53-1.32,2.31-2a89.13,89.13,0,0,0,8.64-8.5c1.83-2,3.6-3.92,5.42-5.78,12.57,15.44,20.54,34.62,20.45,54.73a129.2,129.2,0,0,1-5.09,34.28C244.37,179.69,238.54,177.49,232.59,175.81Zm3.74-111.13a16.09,16.09,0,0,1,4.16,10.43,11.8,11.8,0,0,1-3.6,8c-1.09.85-2.14,1.73-3.15,2.63a104.88,104.88,0,0,0-10.67-10.31c-17.48-15.36-39.79-24-62.62-25.76a30.12,30.12,0,0,1-3.31-.26c0-.48,0-1-.08-1.54h0v0a1.37,1.37,0,0,0,0-.19,14.26,14.26,0,0,1,3.2-9.7c3.45-4.45,9.78-4.46,11.54-4.37A121.33,121.33,0,0,1,236.33,64.68ZM135.24,33.62a16.76,16.76,0,0,1,10,2.22,12,12,0,0,1,4.36,5.28c1,4,2,7.71,2.07,8.22a.15.15,0,0,1,0,.06c-20.84,0-41.64,5.54-59.13,17a16.35,16.35,0,0,1-3.09-9.45,11.77,11.77,0,0,1,5.47-9.65l-.08,0A120.73,120.73,0,0,1,135.24,33.62ZM66.9,68.36a16.66,16.66,0,0,1,10.16-4c3.15,0,6,1.63,8.16,3.39.76.71,1.5,1.44,2.25,2.16a94.07,94.07,0,0,0-14.7,13.57c-15.45,16.71-23.29,37.31-25,58.7,0,0-7.69-1-11.46-6.21a11.69,11.69,0,0,1-1.84-8.3c.29-1.32.59-2.65.92-4,.08-.22.13-.34.13-.34l-.09.16A121.51,121.51,0,0,1,66.9,68.36Zm-35,94.45A16.8,16.8,0,0,1,35.43,152c3.08-3.76,8.14-4.11,10.57-4l.51,0,.89.08-.15,0h.21a126.8,126.8,0,0,0,10.43,52.78,86.11,86.11,0,0,0,4.26,8.68c-.19.14-.39.25-.58.39a16.43,16.43,0,0,1-11,1.26c-5.08-1.29-8.09-6.67-9.12-8.83A121.25,121.25,0,0,1,31.9,162.81Zm32.1,74a19.06,19.06,0,0,1-3.56-11,12.17,12.17,0,0,1,4.64-9.13l1-.79A95.21,95.21,0,0,0,118.63,254a134.69,134.69,0,0,0,27.7,5.07v.06a16.6,16.6,0,0,1-3.82,11c-3.63,4.16-9.63,4-11.48,3.77A121.49,121.49,0,0,1,64,236.81Zm82.45-18c-.1-.67-.21-1.3-.28-2,0-.2-.07-.45-.1-.66a99.33,99.33,0,0,0,10.68.28c20,.42,36.05-13.14,48.6-27.28a40.49,40.49,0,0,0,4.88-8.83c.41,0,.83.09,1.25.1a41,41,0,0,1,14.83,1.19,134.82,134.82,0,0,1-6.87,14.34c-4.95,11.14-13.93,20.2-24.08,27-2-2.58-4-5.11-6.18-7.52a1.77,1.77,0,0,0-2.81,2.08c1.52,2.71,3,5.48,4.47,8.26-.68.39-1.35.82-2,1.2-11.78,6.45-25.16,7.52-38.34,6.3C149.68,228.1,147.4,224,146.45,218.79Zm21.85,56.35a19,19,0,0,1-11-4.07,11.56,11.56,0,0,1-3.78-6.68c-.06-.8-.12-1.6-.19-2.35s-.1-1.76-.13-2.62c16,.26,31.86-2.74,46.12-10.2,1.06-.54,2.06-1.17,3.1-1.75l.72,1.42.64,1.26a15,15,0,0,1,.85,9.28c-1.14,5.34-5.89,7.86-7.49,8.58A121.15,121.15,0,0,1,168.3,275.14Zm61.33-25.78a19.22,19.22,0,0,1-11.22,2.84c-6.55-.56-9.51-6.92-9.51-6.92l.15.42c-.27-.58-.51-1.17-.79-1.75,19.77-12.9,34.64-32.42,42.86-54.47l3.12.79a16.64,16.64,0,0,1,8.36,7.07c3.22,5.73-.68,12.59-.68,12.59l.15-.21A122.45,122.45,0,0,1,229.63,249.36Z"/></g></g></svg>