<svg xmlns="http://www.w3.org/2000/svg" viewBox="0 0 195.2 199.53"><defs><style>.cls-1{fill:#231f20;}</style></defs><g id="Layer_2" data-name="Layer 2"><g id="Layer_1-2" data-name="Layer 1"><path class="cls-1" d="M53.25,181.55c1.77-4,6-5.26,9.91-3.51a6.58,6.58,0,0,1,4.24,6.37l-4,.06a3,3,0,0,0-1.74-3,3.52,3.52,0,0,0-2.87,6.41,3,3,0,0,0,3.41-.71l2.65,3a6.69,6.69,0,0,1-7.59,1.1C53.32,189.52,51.49,185.48,53.25,181.55Z"/><path class="cls-1" d="M68.86,195.31l1.49-5.37-2.82-9.55,4.6,1.27,1.25,5.25L77.12,183l4.6,1.27-7.28,6.77L73,196.44Z"/><path class="cls-1" d="M79.3,190.94c.52-4.3,4.17-6.8,8.42-6.28a6.58,6.58,0,0,1,5.94,4.83l-3.84,1.25a3,3,0,0,0-2.55-2.37,3.52,3.52,0,0,0-.85,7,3,3,0,0,0,3-1.68l3.42,2.11A6.66,6.66,0,0,1,86,199.05C81.72,198.54,78.78,195.21,79.3,190.94Z"/><path class="cls-1" d="M95.11,199.53l-.32-14,4.25-.1.23,10.32,5.31-.12.09,3.7Z"/><path class="cls-1" d="M107.24,199l-1.68-13.93,4.21-.51,1.68,13.93Z"/><path class="cls-1" d="M124,195.89l-6.83-6.07,1.81,7.31-4.12,1-3.38-13.61,4.25-1,6.44,5.68-1.71-6.86,4.13-1,3.37,13.61Z"/><path class="cls-1" d="M132.16,177.79a6.58,6.58,0,0,1,7,.66l-2.53,3.11a2.88,2.88,0,0,0-3-.35,3.51,3.51,0,0,0,2.84,6.42,4,4,0,0,0,1.84-1.51l-.25-.56-2.48,1.1-1.41-3.19,6.24-2.76,2.28,5.15A8.29,8.29,0,0,1,138,191c-3.88,1.72-8.17.59-10-3.5S128.28,179.5,132.16,177.79Z"/><path class="cls-1" d="M15.68,72.65l-4.87.49-.46,1.46L14.64,76l-1.28,4L0,75.79l2.25-7.14a4.66,4.66,0,0,1,6.1-3.36A4.51,4.51,0,0,1,11.64,69L17.13,68ZM5.42,70.34,4.64,72.8,7,73.54l.77-2.47A1.28,1.28,0,0,0,7,69.38,1.28,1.28,0,0,0,5.42,70.34Z"/><path class="cls-1" d="M17.66,67,5.07,60.84l4.68-9.55,3.17,1.55-2.81,5.74,1.47.72,2.75-5.61,3.17,1.56-2.75,5.6,1.61.79,2.81-5.74,3.17,1.55Z"/><path class="cls-1" d="M23,56.22l-11.48-8L15.08,43c2.54-3.61,6.49-4.85,10.15-2.27s3.87,6.71,1.34,10.31Zm-.59-5.6L23.53,49a3.25,3.25,0,0,0-.77-4.68,3.06,3.06,0,0,0-4.63.86L17,46.82Z"/><path class="cls-1" d="M38.89,36.91l-6.81-4.47,4.2,7-3.21,3.09L20.46,35.19l3.42-3.29,7.25,4.92-4.42-7.65L29,27l7.48,4.7-4.66-7.42,3.44-3.3L42.1,33.82Z"/><path class="cls-1" d="M43.16,15.68c3.64-2.34,8-1.67,10.37,1.95S54.64,25.54,51,27.88s-8,1.67-10.37-2S39.52,18,43.16,15.68Zm2,3.15a3.32,3.32,0,0,0-.93,4.77A3.37,3.37,0,1,0,49.91,20,3.33,3.33,0,0,0,45.18,18.83Z"/><path class="cls-1" d="M59.12,7.34c4-1.65,8.22-.21,9.86,3.78s-.32,8-4.33,9.63S56.43,21,54.79,17,55.12,9,59.12,7.34Zm1.43,3.46a3.32,3.32,0,0,0-1.78,4.53A3.37,3.37,0,1,0,65,12.76,3.32,3.32,0,0,0,60.55,10.8Z"/><path class="cls-1" d="M72.57,17.41,69.6,3.7l6.12-1.32c4.32-.94,8.06.83,9,5.21s-1.72,7.56-6,8.49Zm3.36-4.52,2-.42a3.24,3.24,0,0,0,2.6-4,3.06,3.06,0,0,0-4-2.51l-2,.43Z"/><path class="cls-1" d="M101.86,14.12l-.52-1.82L96,12.21,95.38,14l-4.6-.08L96.18,0l5.34.09,4.94,14.1ZM98.79,3.79,97.11,8.7l3.2.05Z"/><path class="cls-1" d="M106.63,14.29,109.17.5l6.16,1.14c4.34.8,7.11,3.87,6.3,8.27s-4.5,6.31-8.82,5.52Zm4.84-2.87,2,.37a3.24,3.24,0,0,0,3.93-2.66,3.06,3.06,0,0,0-2.71-3.85l-2-.37Z"/><path class="cls-1" d="M124.3,18.3l-.07-14.95L128.76,5l-.38,9.9,6.07-7.84L139,8.71l-9.65,11.41Z"/><path class="cls-1" d="M134.29,22.17l6.76-12.28L150.36,15l-1.7,3.09L143.06,15l-.79,1.44,5.47,3L146,22.57l-5.47-3-.86,1.57,5.6,3.07-1.7,3.1Z"/><path class="cls-1" d="M152.25,33.73l.52-9.12-4.61,5.95L144.81,28l8.59-11.08,3.45,2.67-.47,8.58,4.33-5.59,3.36,2.6-8.59,11.09Z"/><path class="cls-1" d="M158.72,39.68l7.52-7.07-2.58-2.75,2.7-2.53,8,8.56-2.69,2.53-2.57-2.72-7.52,7.07Z"/><path class="cls-1" d="M176.44,38.32l2.43,3.57-6.71,4.56a2.43,2.43,0,0,0,2.73,4l6.71-4.57L184,49.46l-6.81,4.64c-2.89,2-6.11,1.74-8.77-2.17s-1.7-7,1.17-9Z"/><path class="cls-1" d="M176.45,65.88l3.28-3.63-.64-1.4L175,62.73l-1.77-3.86L186,53l3.12,6.8a4.66,4.66,0,0,1-2.27,6.59,4.51,4.51,0,0,1-4.91-.52l-3.44,4.39Zm9.16-5.18-1.08-2.35-2.23,1,1.08,2.35a1.24,1.24,0,1,0,2.23-1Z"/><path class="cls-1" d="M178.78,71.45l13.48-3.87,2.94,10.23-3.4,1L190,72.64l-1.58.45,1.73,6-3.4,1-1.72-6-1.72.49,1.76,6.14-3.39,1Z"/><path class="cls-1" d="M160.06,100.53v-.69a3.81,3.81,0,0,1,1.25-3s0,0,0,0A9.81,9.81,0,0,1,165.65,95h0c1.2-.29,2.11-.54,2.06-1.05a.23.23,0,0,0,0-.11c-.05-.45-.19-1.9-.22-2.11-.16-1.47-7.3.88-8.67-3.81a4.89,4.89,0,0,0-.14-.64s0,0,0,0a.18.18,0,0,0,0-.1v0a.85.85,0,0,0,0-.18c-1.24-5.29,6.75-6,6.28-7.49l-.69-2.12c-.47-1.44-7.28,2.57-9.43-2.27,0-.08-.07-.16-.11-.25a.52.52,0,0,0-.08-.19,1.67,1.67,0,0,0-.08-.2l-.05-.1c-2.06-4.79,5.4-7.16,4.65-8.46L158,63.94c-.76-1.32-6.67,4.11-9.77-.35-.1-.14-.13-.18-.12-.15h0a.09.09,0,0,0,0-.08s0,0,0,0,0,0,0,0c-.1-.16-.23-.32-.34-.48a3.84,3.84,0,0,1-.21-.4s0,0,0,0a3.61,3.61,0,0,1-.34-2.2v0c.45-3,4.32-5.52,3.53-6.38l-.16-.18c-.36-.4-1.21-1.33-1.32-1.48-1-1.13-5.66,5.4-9.62,1.71l-.13-.13,0,0h0s-.05,0-.06-.05v0l-.15-.11s0,0,0-.05l0,0,0,0s0,0-.05,0c-3.82-3.55,2.05-8.75.84-9.62-.19-.15-1.63-1.18-1.81-1.32-1.24-.89-4.43,6.47-9.07,3.65l-.17-.09-.12-.07a.48.48,0,0,0-.16-.09c-4.75-2.61,0-9.06-1.35-9.67l-2-.92c-1.35-.59-2.9,6.87-7.71,5.59l-.39-.13-.13,0s0,0-.06,0a6.59,6.59,0,0,0-.76-.24l-.06,0c-4.43-1.89-1.37-8.7-2.82-9L111,30.89c-1.48-.32-1.42,7.52-6.6,7l-.12,0H104a.22.22,0,0,0-.11,0l-.45-.05c-5.13-.66-3.44-8.26-4.93-8.26H96.25c-1.21,0-.34,4.94-2.64,7.2a3.78,3.78,0,0,1-2.26,1.06l-.48.05a.25.25,0,0,0-.12,0h-.19a.3.3,0,0,0-.13,0c-5.25.55-5.19-7.36-6.67-7l-2.17.47c-1.45.29,1.61,7.08-2.81,9h-.06a6,6,0,0,0-.81.28h0s-.06,0-.13,0l-.5.17C72.52,42,71,34.63,69.65,35.22l-2.05.92c-1.38.61,3.35,7-1.28,9.63l-.17.09-.08.06A.14.14,0,0,0,66,46a.44.44,0,0,0-.18.09c-4.64,2.82-7.83-4.54-9.07-3.65l-.5.37c-.48.35-1.18.85-1.3.95-1,.76,3.15,4.7,1.9,8.05a3.83,3.83,0,0,1-1.18,1.66s0,0,0,.05l-.14.11v0l-.07.05h0l0,0a1.42,1.42,0,0,0-.12.13c-4,3.69-8.59-2.84-9.62-1.71-.15.18-1.34,1.48-1.48,1.66-1,1.1,5.59,4.87,2.94,9a5.82,5.82,0,0,0-.38.53s0,0,0,.08a3.92,3.92,0,0,0-.39.52c-3.17,3.8-8.76-1.31-9.5,0-.11.21-1,1.74-1.13,1.93-.74,1.31,6.65,3.64,4.69,8.4,0,0,0,0,0,0s-.05.1-.06.14a.84.84,0,0,0-.08.2s0,.05,0,.06a.13.13,0,0,0,0,.08s0,0,0,0a3,3,0,0,0-.24.52c-2.28,4.43-8.85.58-9.3,2-.08.23-.63,1.91-.69,2.13-.47,1.4,7,2.16,6.38,6.93a.65.65,0,0,0,0,.19v0s0,.05,0,.06a1.61,1.61,0,0,0-.07.37.17.17,0,0,0,0,.07s0,0,0,.06a.34.34,0,0,0,0,.1s0,0,0,0a4.94,4.94,0,0,0-.15.64c-1.37,4.69-8.5,2.34-8.66,3.81,0,.16-.13,1.11-.2,1.72,0,.24,0,.43,0,.5-.13,1.14,4.43.89,6.58,3.06a3.74,3.74,0,0,1,1.12,2.82v.68c.08,5.39-7.86,4.48-7.7,6,0,.23.21,2,.23,2.22.16,1.51,7.71-1,8.77,4.22,0,.08,0,.15.05.23h0v0s0,0,0,0,0,0,0,.08a0,0,0,0,1,0,0s0,0,0,.19c1.25,5.28-6.75,6-6.28,7.49l.69,2.12c.47,1.43,7.25-2.55,9.41,2.24,0,.09.08.18.14.28a.09.09,0,0,0,0,0s0,0,0,.08a.08.08,0,0,0,0,.06.64.64,0,0,0,.08.19s.05.1.06.15,0,0,0,0l.09.22c1.63,4.58-5.5,6.87-4.78,8.14.08.13.48.84.79,1.35.16.29.31.52.34.58.66,1.16,5.28-2.87,8.5-.87a4.39,4.39,0,0,1,1,.87,3.92,3.92,0,0,0,.39.52l0,0h0s0,0,0,0,0,.05,0,.08a1,1,0,0,0,.13.17c3.27,4.32-3.72,8.26-2.7,9.39l1.49,1.66c1,1.13,5.68-5.42,9.63-1.69.12.11.15.14.15.12h0s0,.05.07.07h0s0,0,.05.06h0l0,0,0,0c4.12,3.54-1.91,8.85-.68,9.75l1.81,1.31c1.21.88,4.33-6.24,8.86-3.76l.94.55h0l.08.05a3.87,3.87,0,0,1,1.08,1,4.78,4.78,0,0,1,.6,3.48c-.32,2.34-1.51,4.54-.73,4.9.21.09,1.84.82,2.05.9,1.32.6,2.85-6.62,7.49-5.62h0s0,0,.06,0c.41.13.82.27,1.24.39,4.81,1.73,1.63,8.77,3.1,9.08l2.18.47c1.48.31,1.41-7.66,6.74-7h0l.19,0a.5.5,0,0,0,.17,0h.16a.71.71,0,0,1,.21,0h.06l.21,0c2.77.5,3.41,3.12,3.74,5.28.24,1.6.32,2.93,1,2.93h2.24c.92,0,.64-2.85,1.46-5.2a4.07,4.07,0,0,1,3.47-3c.14,0,.27,0,.4,0a.44.44,0,0,0,.16,0l.27,0h.07c5.23-.52,5.17,7.34,6.65,7l2.18-.47c1.46-.31-1.73-7.36,3.11-9.08l1-.33c4.89-1.4,6.45,6.14,7.82,5.53l2-.9c1.12-.5-1.71-4.72-.46-7.72h0l1.15-1.5a4.72,4.72,0,0,1,.52-.35l.78-.45c4.55-2.52,7.67,4.62,8.89,3.74l1.8-1.31c1.23-.9-4.79-6.21-.68-9.75l0,0,0,0s0,0,0,0,.08-.07,0,0h0s.05,0,.06-.07h0s0,0,.14-.12c4-3.73,8.61,2.82,9.63,1.69l1.49-1.66c1-1.13-6-5.07-2.7-9.38l.14-.18a.1.1,0,0,0,0-.08l0,0,.08-.1,0,0,0,0c3.09-4.41,9,1,9.74-.32l1.12-1.94c.75-1.3-6.68-3.66-4.66-8.43a.52.52,0,0,0,.06-.13,1.08,1.08,0,0,0,.08-.19.52.52,0,0,0,.08-.19c0-.1.09-.2.13-.29,2.17-4.78,8.95-.8,9.41-2.23l.69-2.12c.47-1.45-7.52-2.21-6.28-7.49,0-.14,0-.18,0-.19v0s0,0,0-.08,0,0,0,0h0c0-.08,0-.16,0-.23,1.06-5.24,8.6-2.71,8.76-4.22,0-.23.21-2,.23-2.22C167.91,105,160,105.91,160.06,100.53Zm-13.2-26.31,0,.1a55.57,55.57,0,0,1,5.65,34.75,7.47,7.47,0,0,1-2.16,3.81c-1.93,1.76-4.78,1.23-5.51,1.05l-1.74-.55a51.67,51.67,0,0,0,2.3-16.2c.14-9.6-3.61-18.84-9.58-26.27l.68-.6a5.89,5.89,0,0,1,4.58-1.44,6.69,6.69,0,0,1,4,2.45c.54.89,1.09,1.77,1.58,2.7A.51.51,0,0,1,146.86,74.22Zm-50.39,66.1c-.07-.65-.15-1.27-.24-1.9,6.25.35,12.5-.42,18-3.57.33-.17.63-.37.94-.55.33.63.66,1.26,1,1.88.66,1.25,1.84,3.42,3,5.52a44.1,44.1,0,0,1-22,5.06C96.93,144.63,96.72,142.44,96.47,140.32Zm20.9-7.44c4.74-3.32,8.41-7.86,12-12.43a33.84,33.84,0,0,0,3.36-7.09c1.32.4,2.6.85,3.79,1.31a31.77,31.77,0,0,0,4.2,1.39,46.8,46.8,0,0,1-18.89,24.05A55.76,55.76,0,0,0,117.37,132.88ZM68.79,63.31c1.6,1.61,3.15,3.26,4.58,5a41.23,41.23,0,0,1,3.38,4.58c.28.38.55.77.82,1.17a36.53,36.53,0,0,0-4.2,4.33A38.22,38.22,0,0,0,65,97.12c-2.73-.3-5.44-.62-8.1-1.05L56.5,96c-1.67-.34-3.48-.83-5.21-1A41.75,41.75,0,0,1,62.18,69.49,42.36,42.36,0,0,1,68.79,63.31Zm39.47,43.25,1.74.81a10.28,10.28,0,0,1-.75,1.48,20.71,20.71,0,0,0-1.27,2.79,13,13,0,0,1-9.76,6.71,15.41,15.41,0,0,1-5.3-.19,6.56,6.56,0,0,1,.17-.73c.43-1.35.85-2.83,1.18-4.22.12-.56.24-1.13.35-1.67s.19-.9.28-1.34a5.45,5.45,0,0,0,6.88-.75,13.84,13.84,0,0,0,2.94-4.46,20.53,20.53,0,0,0,.2-5.25,8.56,8.56,0,0,0-9.66-8.21,7,7,0,0,0-2.67.75,13,13,0,0,0-2-5.52A14.17,14.17,0,0,1,109.06,93c-.74.8-1.49,1.57-2.26,2.27a.81.81,0,0,0-.13,1.1.83.83,0,0,0,1.13.18c.73-.57,1.41-1.18,2.08-1.81A16.71,16.71,0,0,1,111,99.82a18.34,18.34,0,0,1-.42,5.77l-1.76-.53A.81.81,0,0,0,108.26,106.56ZM90.48,125.24l.09,1.15a22.34,22.34,0,0,1-10.38-4.68,18.07,18.07,0,0,1-4-5l2.66-.73a.82.82,0,0,0,.7-.83.81.81,0,0,0-.86-.76,23.53,23.53,0,0,0-3.41.46A33.21,33.21,0,0,1,72.81,104a18.75,18.75,0,0,1-.07-4c2.65.21,5.28.48,7.89.93,0,7.43,2.58,15.77,10,18.25a7.68,7.68,0,0,0-.22,1.18A32.36,32.36,0,0,0,90.48,125.24ZM80.69,99A62.71,62.71,0,0,0,73,98a23,23,0,0,1,6.28-11.85,28.66,28.66,0,0,1,4.45-3.76c1.07,1.32,2.17,2.61,3.31,3.85a14.48,14.48,0,0,0-6.19,10.89C80.78,97.75,80.73,98.39,80.69,99ZM72.1,93.65A20.25,20.25,0,0,0,71,97.78c-.18,0-.38,0-.53-.07l-3.24-.35A35.57,35.57,0,0,1,75,79.72a36.09,36.09,0,0,1,3.74-4c1.21,1.71,2.44,3.4,3.72,5.06A27.91,27.91,0,0,0,72.1,93.65Zm-1.38,6.24a38.84,38.84,0,0,0,1.32,12,26.21,26.21,0,0,0,1.11,3.31c-.29.06-.58.12-.87.2-1.25.31-2.51.67-3.76,1.09a48.42,48.42,0,0,1-1.63-12,34.18,34.18,0,0,1,.08-5C68.22,99.7,69.48,99.79,70.72,99.89Zm3.38,17.37c3.44,6.46,9.53,9.8,16.64,11,.05.45.08.89.14,1.33a19.32,19.32,0,0,0,1,4.39,12.46,12.46,0,0,1,.67,2.11c-1.82-.28-3.63-.62-5.38-1-9.58-2.18-15.08-8.28-17.89-16.07A42.91,42.91,0,0,1,74.1,117.26Zm17.25-.6c-.08.33-.16.65-.24,1-5.3-2-8.38-7.37-9-14-.12-.81-.19-1.63-.23-2.45.59.11,1.18.21,1.77.35a.81.81,0,0,0,.38-1.57l-2.14-.6a12.13,12.13,0,0,1,2.83-7.56A16.27,16.27,0,0,1,88.51,88a8,8,0,0,1,1.1,1.78,13.86,13.86,0,0,1,.85,4.1,8.1,8.1,0,0,0-1.93,8.51,16,16,0,0,0,4.82,6.78c-.14.47-.28.94-.42,1.43-.1.32-.19.64-.29,1C92.25,113,91.67,115.27,91.35,116.66Zm6-17a7.22,7.22,0,0,0-3-3.71A2.21,2.21,0,0,1,92.72,94a7.15,7.15,0,0,1,2.74-1.15c4.1-.92,8.63,2.62,8.35,6.91-.06,2.14-1.28,4.1-1.52,6.19s-1.78,4.14-3.79,4.24A6.86,6.86,0,0,1,95.16,109c.16-.72.32-1.43.52-2.14a.86.86,0,0,0-.58-1,.78.78,0,0,0-1,.6c-.13.51-.27,1-.4,1.45a16.92,16.92,0,0,1-3.82-6,6.49,6.49,0,0,1,1-6.22c.06.14.1.29.17.44a4.59,4.59,0,0,0,2,1.67,15.75,15.75,0,0,1,2.74,2.58.86.86,0,0,0,.92.29A.81.81,0,0,0,97.33,99.63Zm13-8c-3.21-5.52-9.27-9.26-16-8.19A15.6,15.6,0,0,0,89.12,85c-1.16-1.27-2.23-2.58-3.29-3.91a25,25,0,0,1,10.85-3.32,27.79,27.79,0,0,1,19.94,7.6l-.25.21A43.43,43.43,0,0,0,110.34,91.59ZM96.59,75.94a27.46,27.46,0,0,0-12,3.55q-2-2.64-3.91-5.39a30.76,30.76,0,0,1,16.68-6.85c.14.51.29,1,.42,1.51a.83.83,0,0,0,1.6.1,7,7,0,0,0,.2-1.68c9.29.09,18.39,4.54,24.81,11.38-2.21,2-4.38,4-6.62,5.83A29.08,29.08,0,0,0,96.59,75.94Zm2.87-10.58c-.28-1.91-.92-3.79-1-5.7a11.15,11.15,0,0,1,0-3c.14-.82.45-1.63.51-2.3,0,0,.29,0,.74,0A47.53,47.53,0,0,1,128.13,65.5a47,47,0,0,1,4.8,4.56c-.89.91-1.74,1.84-2.56,2.76a36.8,36.8,0,0,1-3.82,3.87l-1,.89C118.86,70.3,109.36,65.53,99.46,65.36ZM96.1,60.85a16.53,16.53,0,0,0,.76,4.6,32.62,32.62,0,0,0-17.34,7l-.69-1a42.23,42.23,0,0,0-3.35-4.61c-1.4-1.72-2.93-3.38-4.52-5A47.37,47.37,0,0,1,96.7,54.27a15.78,15.78,0,0,1-.38,2.89A8.68,8.68,0,0,0,96.1,60.85Zm-43,36.94c1.06.26,2.14.47,3.21.65,2.81.49,5.63.77,8.47,1a37.82,37.82,0,0,0-.13,5.21,48.42,48.42,0,0,0,1.74,12.69,17.81,17.81,0,0,0-5.88,3.86l-.08.07c-1.09.9-2.08,1.89-3.1,2.81a36.78,36.78,0,0,1-1.65-3.4,56.86,56.86,0,0,1-4.54-23.07C51.79,97.67,52.44,97.71,53.09,97.79Zm8.78,26.5.8-.77A17.16,17.16,0,0,1,67.25,120c3.1,8.39,9.19,15,19.45,17.1,2,.41,4.15.76,6.27,1,.1.66.2,1.31.28,2,.23,2,.37,4,.61,5.69,0,.25,0,.51.06.77a54.33,54.33,0,0,1-12-2.49,42.18,42.18,0,0,1-22.88-17C60.06,126.17,61,125.21,61.87,124.29Zm31.79,2.6c-.32-2-.69-4.24-.88-6.08,0-.3-.06-.58-.08-.85a1.23,1.23,0,0,0,0-.2,16.07,16.07,0,0,0,12.09-2.23,23.32,23.32,0,0,0,4.9-4.77,7.12,7.12,0,0,0,1.75-3c.14-.52.26-1,.38-1.56a74.66,74.66,0,0,0,8.82,3.43l.09,0c-.19.36-.38.72-.58,1.07-1.33,2.1-2.12,4.49-3.71,6.47-4.45,4.92-10.9,8.24-17.61,8C97.15,127.19,95.4,127.09,93.66,126.89Zm18.61-20.77a26.73,26.73,0,0,0,.46-6.43,17.33,17.33,0,0,0-1.47-6.29,55,55,0,0,1,6.49-6c.16-.12.32-.25.48-.36a21.69,21.69,0,0,1,5.34,10.75,24.47,24.47,0,0,0-4.35.68.81.81,0,0,0,.2,1.6l4.38-.18c0,.41.08.81.08,1.23a20.54,20.54,0,0,1-1.81,7.79A84,84,0,0,1,112.27,106.12Zm7.1-20c2.33-1.8,4.51-3.74,6.71-5.64a32.16,32.16,0,0,1,7,15.4,21.69,21.69,0,0,1-2.37,1,28,28,0,0,1-5.79.84A24.28,24.28,0,0,0,119.37,86.12Zm5.94,15c0-.43-.07-.85-.1-1.27l3.1-.06a14.74,14.74,0,0,0,5.07-1.36q.06.92.06,1.86a31.41,31.41,0,0,1-1.59,9.44,27.86,27.86,0,0,0-5.87-.8,10.35,10.35,0,0,0-1.57.14A32.17,32.17,0,0,0,125.31,101.11Zm8.3,9.07a41,41,0,0,0,1.17-9.9c0-.83-.05-1.64-.12-2.45,1.71-.85,3.37-1.81,5-2.6a3.64,3.64,0,0,1,2.38-.37.81.81,0,0,0,.31-1.58,6.09,6.09,0,0,0-1.68-.27,22,22,0,0,0-6.34,2.29,34.41,34.41,0,0,0-7.17-15.77c.35-.3.7-.6,1.06-.89a40.61,40.61,0,0,0,4-3.9c.84-.91,1.65-1.8,2.49-2.65,5.76,7.08,9.41,15.87,9.37,25.09a59,59,0,0,1-2.33,15.72C139,112,136.34,111,133.61,110.18Zm1.72-51A7.37,7.37,0,0,1,137.24,64a5.38,5.38,0,0,1-1.66,3.67c-.49.39-1,.8-1.44,1.21a47.47,47.47,0,0,0-4.89-4.73,49.31,49.31,0,0,0-28.71-11.81A13.21,13.21,0,0,1,99,52.23a5.69,5.69,0,0,0,0-.7h0v-.11A6.51,6.51,0,0,1,100.44,47c1.58-2,4.48-2,5.29-2A55.58,55.58,0,0,1,135.33,59.23ZM89,45a7.63,7.63,0,0,1,4.58,1,5.52,5.52,0,0,1,2,2.42c.46,1.82.92,3.54,1,3.77a0,0,0,0,0,0,0A49.44,49.44,0,0,0,69.4,60,7.55,7.55,0,0,1,68,55.66a5.37,5.37,0,0,1,2.5-4.42h0A55.29,55.29,0,0,1,89,45ZM57.65,60.91a7.59,7.59,0,0,1,4.65-1.83,6,6,0,0,1,3.75,1.55l1,1a43.48,43.48,0,0,0-6.74,6.22A44.15,44.15,0,0,0,48.89,94.76s-3.52-.46-5.25-2.85a5.36,5.36,0,0,1-.85-3.81c.14-.6.27-1.21.43-1.81a.72.72,0,0,1,.06-.15l0,.07A55.67,55.67,0,0,1,57.65,60.91Zm-16,43.31a7.7,7.7,0,0,1,1.62-5,6.07,6.07,0,0,1,4.84-1.86l.24,0,.41,0-.07,0h.1a58,58,0,0,0,4.77,24.2,41.94,41.94,0,0,0,2,4l-.27.17a7.49,7.49,0,0,1-5,.58c-2.33-.59-3.71-3-4.18-4A55.44,55.44,0,0,1,41.6,104.22Zm14.71,33.93a8.82,8.82,0,0,1-1.63-5,5.6,5.6,0,0,1,2.13-4.19l.49-.36A43.62,43.62,0,0,0,81.36,146a61.79,61.79,0,0,0,12.7,2.32v0a7.6,7.6,0,0,1-1.76,5c-1.66,1.91-4.41,1.81-5.26,1.73A55.67,55.67,0,0,1,56.31,138.15Zm37.81-8.27c-.05-.3-.1-.59-.13-.91,0-.1,0-.21,0-.31a44.22,44.22,0,0,0,4.9.13c9.19.2,16.53-6,22.29-12.5a18.86,18.86,0,0,0,2.23-4.06l.58,0a18.69,18.69,0,0,1,6.79.55,60,60,0,0,1-3.15,6.57,30,30,0,0,1-11,12.37c-.9-1.18-1.83-2.34-2.83-3.45a.81.81,0,0,0-1.29,1c.7,1.25,1.37,2.52,2,3.79-.31.18-.62.38-.93.55-5.4,3-11.54,3.45-17.58,2.89C95.6,134.15,94.56,132.27,94.12,129.88Zm10,25.84a8.7,8.7,0,0,1-5-1.87,5.29,5.29,0,0,1-1.74-3.06c0-.36,0-.73-.08-1.07s0-.81-.06-1.21a43.82,43.82,0,0,0,21.15-4.67c.48-.25.94-.54,1.42-.8.06.12.26.52.33.64s.19.4.29.58a7,7,0,0,1,.39,4.26,5.93,5.93,0,0,1-3.43,3.93A55.24,55.24,0,0,1,104.14,155.72Zm28.12-11.82a8.79,8.79,0,0,1-5.15,1.3,5.8,5.8,0,0,1-4.36-3.17l.07.19c-.12-.26-.23-.54-.36-.8a51.06,51.06,0,0,0,19.65-25l1.43.37a7.61,7.61,0,0,1,3.84,3.24c1.47,2.63-.32,5.77-.32,5.77l.07-.1A56,56,0,0,1,132.26,143.9Z"/></g></g></svg>