<?xml version="1.0" encoding="utf-8"?>
<!-- Generator: Adobe Illustrator 25.2.3, SVG Export Plug-In . SVG Version: 6.00 Build 0)  -->
<svg version="1.1" id="Layer_1" xmlns="http://www.w3.org/2000/svg" xmlns:xlink="http://www.w3.org/1999/xlink" x="0px" y="0px"
	 viewBox="0 0 307.1 308.2" style="enable-background:new 0 0 307.1 308.2;" xml:space="preserve">
<style type="text/css">
	.st0{fill:#FFFFFF;}
</style>
<path class="st0" d="M290.3,154.8v-1.5c-0.1-2.5,0.9-4.8,2.7-6.5l0,0c2.6-2.4,6.4-3.3,9.4-4c0,0,0.1,0,0.1,0
	c2.6-0.6,4.6-1.2,4.5-2.3c0-0.1,0-0.2,0-0.2c-0.1-1-0.4-4.1-0.5-4.6c-0.4-3.2-15.9,1.9-18.9-8.3c-0.1-0.5-0.2-0.9-0.3-1.4
	c0,0,0,0,0-0.1c0-0.1,0-0.1,0-0.2c0,0,0,0,0-0.1c0-0.1,0-0.3-0.1-0.4c-2.7-11.5,14.7-13.2,13.7-16.3c-0.2-0.5-1.4-4.2-1.5-4.6
	c-1-3.1-15.9,5.6-20.6-5c-0.1-0.2-0.1-0.3-0.2-0.5c0-0.2-0.1-0.3-0.2-0.4c0-0.2-0.1-0.3-0.2-0.4c0-0.1-0.1-0.1-0.1-0.2
	c-4.5-10.5,11.8-15.6,10.1-18.5l-2.5-4.2c-1.7-2.9-14.6,9-21.3-0.8c-0.2-0.3-0.3-0.4-0.3-0.3l0,0c0-0.1,0-0.1-0.1-0.2
	c0,0,0-0.1-0.1-0.1l0,0c-0.2-0.3-0.5-0.7-0.7-1s-0.3-0.6-0.5-0.9c0,0,0,0-0.1-0.1c-0.8-1.5-1-3.2-0.7-4.8l0,0c1-6.6,9.4-12,7.7-13.9
	c-0.1-0.1-0.2-0.3-0.4-0.4c-0.8-0.9-2.6-2.9-2.9-3.2c-2.2-2.5-12.3,11.8-21,3.7l-0.3-0.3h-0.1l0,0l-0.1-0.1l0,0
	c-0.1-0.1-0.2-0.2-0.3-0.2s-0.1-0.1-0.1-0.1l-0.1-0.1l-0.1-0.1c0,0-0.1-0.1-0.1-0.1c-8.3-7.7,4.5-19.1,1.8-21
	c-0.4-0.3-3.6-2.6-3.9-2.9c-2.7-1.9-9.7,14.1-19.8,8l-0.4-0.2c-0.1-0.1-0.2-0.1-0.2-0.1c-0.1-0.1-0.2-0.2-0.4-0.2
	c-10.4-5.7,0.1-19.8-3-21.1c-0.5-0.2-4-1.8-4.5-2c-2.9-1.3-6.3,15-16.8,12.2c-0.3-0.1-0.6-0.2-0.8-0.3c-0.1,0-0.2-0.1-0.3-0.1
	c0,0-0.1,0-0.1,0c-0.6-0.2-1.1-0.4-1.6-0.5c-0.1,0-0.1-0.1-0.1-0.1c-9.7-4.1-3-19-6.1-19.6l-4.8-1c-3.2-0.7-3.1,16.4-14.4,15.4
	c-0.1,0-0.2,0-0.2,0s-0.4,0-0.6,0c-0.1,0-0.2,0-0.2,0l-1-0.1C155.6,16.6,159.2,0,156,0h-4.9c-2.6,0-0.7,10.8-5.8,15.7
	c-1.3,1.3-3.1,2.1-4.9,2.3l-1,0.1c-0.1,0-0.2,0-0.2,0c-0.1,0-0.3,0-0.4,0c-0.1,0-0.2,0-0.3,0C127,19.4,127.1,2.2,123.9,2.9l-4.7,1
	c-3.2,0.6,3.5,15.5-6.1,19.6l0,0c0,0-0.1,0-0.1,0c-0.6,0.2-1.2,0.4-1.8,0.6H111c-0.1,0-0.2,0.1-0.3,0.1c-0.4,0.1-0.7,0.2-1.1,0.4
	C99.3,27,96,11,93.1,12.3c-0.5,0.2-4,1.8-4.5,2c-3,1.3,7.3,15.2-2.8,21c-0.1,0-0.2,0.1-0.3,0.2c0,0-0.1,0.1-0.2,0.1
	c-0.1,0-0.2,0-0.2,0.1c-0.1,0-0.3,0.1-0.4,0.2c-10.1,6.2-17.1-9.9-19.8-8c-0.1,0.1-0.6,0.4-1.1,0.8L61,30.9
	c-2.3,1.7,6.9,10.3,4.1,17.6c-0.5,1.4-1.4,2.7-2.6,3.6c0,0-0.1,0-0.1,0.1l-0.3,0.2l0,0L62,52.5l0,0c0,0-0.1,0-0.1,0
	c-0.1,0.1-0.2,0.2-0.3,0.3c-8.6,8.2-18.8-6.1-21-3.6c-0.3,0.4-2.9,3.2-3.2,3.6c-2.2,2.4,12.2,10.6,6.4,19.7
	c-0.3,0.4-0.6,0.8-0.8,1.2c0,0-0.1,0.1-0.1,0.2c-0.3,0.4-0.6,0.7-0.9,1.1c-6.9,8.3-19.1-2.8-20.7,0c-0.2,0.4-2.2,3.8-2.5,4.2
	c-1.6,2.8,14.5,7.9,10.2,18.3c0,0,0,0,0,0.1s-0.1,0.2-0.1,0.3c-0.1,0.1-0.1,0.3-0.2,0.4c0,0,0,0.1,0,0.1c0,0.1-0.1,0.1-0.1,0.2
	s-0.1,0.1-0.1,0.1c-0.2,0.4-0.4,0.7-0.6,1.1c-5,9.7-19.3,1.3-20.3,4.4c-0.2,0.5-1.4,4.1-1.5,4.6c-1,3.1,15.2,4.7,13.9,15.1
	c0,0.1-0.1,0.3-0.1,0.4l0,0c0,0,0,0.1,0,0.1c-0.1,0.3-0.1,0.5-0.1,0.8c0,0,0,0.1,0,0.1c0,0,0,0.1,0,0.1c0,0.1,0,0.1,0,0.2
	c0,0,0,0,0,0.1c-0.1,0.5-0.2,0.9-0.3,1.4c-3,10.2-18.6,5.1-18.9,8.3c0,0.4-0.3,2.4-0.4,3.8c0,0.4,0,0.7-0.1,1.1
	c-0.3,2.5,9.7,1.9,14.4,6.7c1.6,1.6,2.5,3.9,2.4,6.1v1.5c0,11.8-17.3,9.8-17,13.1c0.1,0.5,0.5,4.3,0.5,4.8
	c0.4,3.3,16.8-2.2,19.1,9.2c0,0.2,0.1,0.3,0.1,0.5l0,0l0,0c0,0,0,0,0,0.1s0,0.1,0,0.2c0,0,0,0,0,0.1c0,0.1,0,0.3,0.1,0.4
	c2.7,11.5-14.7,13.2-13.7,16.3c0.2,0.5,1.3,4.1,1.5,4.6c1,3.1,15.8-5.6,20.5,4.9c0.1,0.2,0.2,0.4,0.3,0.6c0,0,0,0.1,0.1,0.1
	s0,0.1,0.1,0.2c0,0,0,0.1,0,0.1c0,0.1,0.1,0.3,0.2,0.4c0,0.1,0.1,0.2,0.1,0.3c0,0,0,0.1,0,0.1s0.1,0.3,0.2,0.5
	c3.5,10-12,15-10.4,17.7c0.2,0.3,1,1.8,1.7,2.9c0.4,0.6,0.7,1.1,0.7,1.3c1.4,2.5,11.5-6.3,18.5-1.9c0.8,0.5,1.6,1.2,2.2,1.9
	c0.2,0.4,0.5,0.8,0.8,1.1v-0.1l0,0c0,0,0,0,0,0.1s0.1,0.1,0.1,0.2s0.2,0.2,0.3,0.4c7.1,9.4-8.1,18-5.9,20.5l3.4,3.6
	c2.2,2.5,12.4-11.8,21-3.7c0.3,0.2,0.3,0.3,0.3,0.3l0,0c0,0.1,0.1,0.1,0.1,0.1l0,0l0,0c-0.1-0.1,0,0,0.1,0.1l0,0h0l0.1,0.1
	c9,7.7-4.2,19.3-1.5,21.3l3.9,2.9c2.7,1.9,9.4-13.6,19.3-8.2c0.7,0.4,1.4,0.8,2.1,1.2c0,0,0,0,0.1,0l0.2,0.1
	c0.9,0.6,1.7,1.4,2.3,2.3c1.4,2.3,1.8,5,1.3,7.6c-0.7,5.1-3.3,9.9-1.6,10.7c0.5,0.2,4,1.8,4.5,2c2.9,1.3,6.2-14.4,16.3-12.3h0.1
	c0,0,0.1,0,0.2,0c0.9,0.3,1.8,0.6,2.7,0.9c10.5,3.8,3.6,19.1,6.8,19.8l4.8,1c3.2,0.7,3.1-16.7,14.7-15.3h0.1h0.4c0.1,0,0.2,0,0.4,0
	c0.1,0,0.2,0,0.4,0c0.2,0,0.3,0,0.5,0.1h0.1c0.2,0,0.3,0.1,0.5,0.1c6,1.1,7.4,6.8,8.1,11.5c0.5,3.5,0.7,6.4,2.1,6.4h5
	c2,0,1.4-6.2,3.2-11.4c1.1-3.3,3.2-6.1,7.6-6.6c0.3,0,0.6,0,0.9-0.1c0.1,0,0.2,0,0.4,0c0.2,0,0.4,0,0.6,0h0.1
	c11.4-1.1,11.3,16,14.5,15.3l4.8-1c3.2-0.7-3.8-16.1,6.8-19.8l2.2-0.7c10.7-3.1,14.1,13.4,17.1,12.1l4.4-2c2.4-1.1-3.7-10.3-1-16.8
	l0,0l2.5-3.3c0.4-0.3,0.7-0.5,1.1-0.8c0.6-0.3,1.1-0.6,1.7-1c9.9-5.5,16.7,10.1,19.4,8.2l3.9-2.9c2.7-2-10.4-13.5-1.5-21.3l0.1-0.1
	l0,0l0,0c0.1-0.1,0.2-0.2,0.1-0.1s0,0,0,0l0,0c0,0,0.1-0.1,0.1-0.1l0,0c0,0,0.1,0,0.3-0.3c8.6-8.1,18.8,6.2,21,3.7l3.2-3.6
	c2.2-2.5-13-11.1-5.9-20.5l0.3-0.4c0.1-0.1,0.1-0.1,0.1-0.2l0,0c0,0,0.1-0.1,0.2-0.2l0.1-0.1c0,0,0,0,0-0.1
	c6.8-9.6,19.6,2.2,21.3-0.7l2.4-4.2c1.6-2.8-14.6-8-10.1-18.4c0.1-0.1,0.1-0.2,0.1-0.3c0.1-0.1,0.1-0.3,0.2-0.4
	c0.1-0.1,0.2-0.3,0.2-0.4c0.1-0.2,0.2-0.4,0.3-0.6c4.7-10.4,19.5-1.7,20.5-4.9c0.1-0.5,1.3-4.1,1.5-4.6c1-3.2-16.4-4.8-13.7-16.3
	c0-0.1,0.1-0.3,0.1-0.4c0,0,0,0,0-0.1c0-0.1,0-0.1,0-0.2c0,0,0,0,0-0.1l0,0l0,0c0-0.2,0.1-0.3,0.1-0.5c2.3-11.4,18.8-5.9,19.1-9.2
	c0-0.5,0.5-4.3,0.5-4.8C307.4,164.5,290.1,166.5,290.3,154.8z M261.5,97.4l0.1,0.2c9.1,17.4,13.9,36.8,13.9,56.5
	c0,6.5-0.5,12.9-1.6,19.3c-0.7,3.2-2.4,6.1-4.7,8.3c-4.2,3.8-10.4,2.7-12,2.3c-1.3-0.4-2.5-0.8-3.8-1.2c3.5-11.4,5.2-23.4,5-35.3
	c0.3-21-7.9-41.1-20.9-57.3c0.5-0.5,1-0.9,1.5-1.3c2-1.6,5.7-3.9,10-3.1c3.5,0.7,6.6,2.6,8.8,5.3c1.2,2,2.4,3.9,3.4,5.9
	C261.3,97.1,261.4,97.2,261.5,97.4z M151.6,241.6c-0.2-1.4-0.3-2.8-0.5-4.2c13.6,0.8,27.3-0.9,39.2-7.8c0.7-0.4,1.4-0.8,2.1-1.2
	c0.7,1.4,1.4,2.8,2.2,4.1c1.4,2.7,4,7.4,6.4,12c-14.8,7.8-31.3,11.6-48,11C152.6,251,152.1,246.2,151.6,241.6z M197.2,225.3
	c10.3-7.2,18.3-17.1,26.1-27.1c3-4.9,5.5-10,7.3-15.5c2.9,0.9,5.7,1.9,8.3,2.9c3,1.2,6,2.2,9.2,3c-8.1,22.5-22.5,40.7-41.2,52.4
	C204,235.6,200.8,230.3,197.2,225.3L197.2,225.3z M91.2,73.6c3.5,3.5,6.9,7.1,10,10.8c2.7,3.2,5.1,6.5,7.4,10
	c0.6,0.8,1.2,1.7,1.8,2.6c-14.8,13-24.5,30.9-27.4,50.3c-6-0.7-11.9-1.3-17.7-2.3c-0.3-0.1-0.6-0.1-0.9-0.2
	c-3.7-0.7-7.6-1.8-11.4-2.3c1.6-20.2,9-39.5,23.8-55.5C81.1,82,85.9,77.5,91.2,73.6z M177.3,167.9c1.3,0.6,2.5,1.2,3.8,1.8
	c-0.5,1.1-1,2.2-1.6,3.2c-1.1,2-2,4-2.8,6.1c-4.3,8-12.3,13.5-21.3,14.6c-3.8,0.5-7.7,0.4-11.5-0.4c0.1-0.5,0.2-1.1,0.4-1.6
	c1-2.9,1.9-6.2,2.6-9.2c0.3-1.2,0.5-2.5,0.8-3.7c0.2-1,0.4-1.9,0.6-2.9c4.9,2.7,10.2,3,15-1.6c2.4-2.9,5.3-6,6.4-9.7
	c0.8-3.8,0.6-7.7,0.4-11.4c-0.2-10.8-10.3-19.5-21.1-17.9c-2,0.2-4,0.7-5.8,1.6c-0.6-4.3-2.1-8.4-4.5-12c14.6-7.1,32.3-1,40.4,13.6
	c-1.6,1.7-3.2,3.4-4.9,4.9c-0.7,0.6-0.8,1.6-0.3,2.4c0.6,0.8,1.7,1,2.5,0.4c1.6-1.2,3.1-2.6,4.6-3.9c1.4,3.5,2.2,7.3,2.5,11.1
	c0.4,4.2,0.1,8.5-0.9,12.6c-1.3-0.4-2.6-0.8-3.8-1.1c-1-0.2-1.9,0.4-2.1,1.4C176.3,166.8,176.7,167.5,177.3,167.9L177.3,167.9z
	 M138.5,208.7c0.1,0.9,0.1,1.7,0.2,2.5c-8.3-1.7-16.2-4.7-22.7-10.2c-3.6-3.1-6.5-6.8-8.8-11c2-0.5,3.9-1.1,5.8-1.6
	c0.9-0.1,1.5-0.9,1.5-1.8c-0.1-1-0.9-1.7-1.8-1.7c0,0,0,0,0,0c-2.5,0.2-5,0.5-7.4,1c-3.1-7.5-4.9-15.5-5.3-23.6
	c-0.3-2.9-0.4-5.8-0.1-8.6c5.8,0.5,11.5,1.1,17.2,2c0,16.2,5.6,34.4,21.8,39.8c-0.2,0.8-0.4,1.7-0.5,2.6
	C138,201.6,138.4,205.4,138.5,208.7L138.5,208.7z M117.2,151.5c-3.5-1-11-1.7-16.8-2.3c1.9-9.8,6.7-18.8,13.7-25.8
	c2.9-3.1,6.2-5.8,9.7-8.2c2.3,2.9,4.7,5.7,7.2,8.4c-7.9,5.5-12.8,14.2-13.5,23.8C117.4,148.7,117.2,150.1,117.2,151.5z M98.4,139.8
	c-1.1,2.9-2,5.9-2.5,9l-1.2-0.1l-7-0.8c2.8-18.1,11.7-34.8,25.2-47.2c2.6,3.7,5.3,7.4,8.1,11C110.9,118.6,103,128.3,98.4,139.8z
	 M95.4,153.4c-0.7,8.8,0.8,17.8,2.9,26.3c0.6,2.5,1.4,4.9,2.4,7.2l-1.9,0.4c-2.7,0.7-5.5,1.5-8.2,2.4c-2.3-8.5-3.5-17.3-3.6-26.1
	c-0.2-3.6-0.1-7.2,0.2-10.8L95.4,153.4z M102.8,191.3c7.5,14.1,20.8,21.4,36.3,24c0.1,1,0.2,1.9,0.3,2.9c0.4,3.3,1.1,6.5,2.2,9.6
	c0.6,1.5,1.1,3,1.4,4.6c-4-0.6-7.9-1.4-11.7-2.2c-20.9-4.8-32.9-18-39-35C95.8,193.7,99.2,192.4,102.8,191.3L102.8,191.3z
	 M140.4,190c-0.2,0.7-0.3,1.4-0.5,2.1c-11.6-4.4-18.3-16.1-19.6-30.4c-0.3-1.8-0.4-3.6-0.5-5.4c1.3,0.2,2.6,0.5,3.8,0.8
	c1,0.2,1.9-0.5,2-1.4c0.2-0.9-0.4-1.7-1.2-2l-4.7-1.3c0.3-6,2.1-11.8,6.2-16.5c2.3-3.2,5-6.1,8.2-8.4c1,1.2,1.8,2.5,2.4,3.9
	c1.4,2.7,1.4,5.8,1.9,8.9c-4.6,4.8-6.8,12.1-4.2,18.6c2.1,5.8,5.8,10.9,10.5,14.8c-0.3,1-0.6,2-0.9,3.1c-0.2,0.7-0.4,1.4-0.6,2.1
	C142.4,182,141.1,186.9,140.4,190z M153.4,152.9c-1.2-3.4-3.5-6.2-6.6-8.1c-2.3-1.1-3.1-2-3.4-4.3c1.8-1.2,3.8-2.1,6-2.5
	c8.9-2,18.8,5.7,18.2,15.1c-0.1,4.7-2.8,8.9-3.3,13.5s-3.9,9-8.2,9.2c-2.6-0.2-5.1-1-7.3-2.5c0.4-1.6,0.7-3.1,1.1-4.7
	c0.3-1-0.3-2-1.3-2.3c-0.9-0.3-1.9,0.3-2.1,1.2c0,0,0,0.1,0,0.1c-0.3,1.1-0.6,2.1-0.9,3.2c-3.7-3.7-6.5-8.1-8.3-13
	c-1.6-4.6-0.8-9.8,2.3-13.6c0.1,0.3,0.2,0.6,0.4,1c1.1,1.6,2.6,2.9,4.5,3.6c2.2,1.3,4,3.6,6,5.6c0.5,0.6,1.3,0.9,2,0.6
	C153.3,154.9,153.8,153.9,153.4,152.9C153.5,152.9,153.5,152.9,153.4,152.9L153.4,152.9z M181.8,135.3c-7-12-20.2-20.2-34.9-17.8
	c-4,0.5-7.8,1.6-11.4,3.5c-2.5-2.8-4.9-5.6-7.2-8.5c7.2-4.2,15.3-6.7,23.7-7.3c15.5-0.8,31.9,5.7,43.5,16.6l-0.5,0.4
	C189.9,126,185.8,130.7,181.8,135.3L181.8,135.3z M151.8,101.2c-9.2,0.5-18.2,3.2-26.2,7.8c-2.9-3.8-5.8-7.8-8.5-11.8
	c10.5-8.3,23.1-13.9,36.4-14.9c0.3,1.1,0.6,2.2,0.9,3.3c0.2,1,1.2,1.6,2.2,1.4c0.6-0.1,1.1-0.6,1.3-1.2c0.3-1.2,0.4-2.4,0.4-3.7
	c20.3,0.2,40.1,9.9,54.1,24.8c-4.8,4.2-9.6,8.6-14.4,12.7C186,107.6,168.8,100.4,151.8,101.2L151.8,101.2z M158.1,78.1
	c-0.6-4.2-2-8.3-2.3-12.4c-0.3-2.2-0.3-4.4-0.1-6.7c0.3-1.8,1-3.5,1.1-5c0,0,0.6,0.1,1.6,0.1c22.5,1.2,44.8,9.3,62.1,24.3
	c3.7,3.1,7.2,6.4,10.5,9.9c-2,2-3.8,4-5.6,6c-2.6,3-5.4,5.8-8.3,8.4c-0.8,0.6-1.5,1.3-2.3,2C200.4,88.8,179.7,78.4,158.1,78.1
	L158.1,78.1z M150.7,68.3c0.1,3.4,0.6,6.8,1.7,10c-13.8,1.1-26.9,6.7-37.8,15.2l-1.5-2.2c-2.2-3.5-4.7-6.8-7.3-10
	c-3.1-3.8-6.4-7.4-9.9-10.9c16.6-10.9,36.3-16.3,56.1-16.4c-0.1,2.1-0.4,4.2-0.8,6.3C150.3,63.1,150.6,65.2,150.7,68.3L150.7,68.3z
	 M57,148.8c2.3,0.6,4.7,1,7,1.4c6.1,1.1,12.3,1.7,18.5,2.2c-0.4,3.8-0.5,7.6-0.3,11.4c0,9.4,1.3,18.7,3.8,27.7
	c-4.8,1.9-9.1,4.8-12.8,8.4c-0.1,0-0.1,0.1-0.2,0.1c-2.4,2-4.6,4.1-6.8,6.1c-1.3-2.4-2.5-4.9-3.6-7.4c-6.8-15.9-10.1-33-9.9-50.3
	C54.1,148.5,55.5,148.6,57,148.8z M76.2,206.6c0.6-0.6,1.2-1.1,1.8-1.7c2.9-3.1,6.3-5.7,10-7.6c6.8,18.3,20,32.7,42.4,37.3
	c4.5,0.9,9,1.7,13.7,2.2c0.2,1.4,0.5,2.8,0.6,4.3c0.5,4.3,0.8,8.8,1.3,12.4c0.1,0.6,0.1,1.1,0.1,1.7c-8.9-0.8-17.6-2.6-26.1-5.4
	c-20.4-6.2-38.1-19.3-49.9-37.1C72.2,210.7,74.1,208.6,76.2,206.6L76.2,206.6z M145.5,212.3c-0.7-4.4-1.5-9.2-1.9-13.2
	c-0.1-0.7-0.1-1.3-0.2-1.9c0-0.1,0-0.3,0-0.4c9,1.7,18.7,0.4,26.4-4.9c4.3-2.7,7.4-6.6,10.7-10.4c1.8-1.8,3.1-4,3.8-6.5
	c0.3-1.1,0.6-2.3,0.8-3.4c6.2,2.9,12.7,5.4,19.2,7.5l0.2,0.1c-0.4,0.8-0.8,1.6-1.3,2.4c-2.9,4.6-4.6,9.8-8.1,14.1
	c-9.7,10.7-23.8,18-38.4,17.5C153.1,212.9,149.2,212.7,145.5,212.3L145.5,212.3z M186,167c0.9-4.6,1.2-9.3,1-14
	c-0.2-4.7-1.3-9.4-3.2-13.7c4.6-4.6,8.9-9.3,14.2-13.1c0.4-0.2,0.7-0.5,1-0.8c6,6.6,10,14.7,11.6,23.5c-3.2,0.2-6.4,0.7-9.5,1.5
	c-0.9,0.2-1.5,1.2-1.3,2.1c0.2,0.8,0.9,1.4,1.7,1.4c3.1-0.1,6.3-0.3,9.6-0.4c0.1,0.9,0.2,1.8,0.2,2.7c-0.2,5.9-1.5,11.6-3.9,17
	C200.2,171.6,193.2,169.2,186,167z M201.5,123.4c5.1-3.9,9.8-8.2,14.6-12.3c8,9.6,13.3,21.2,15.3,33.6c-1.7,0.8-3.4,1.5-5.2,2.1
	c-4.1,1.1-8.4,1.7-12.6,1.9C211.9,139.2,207.7,130.5,201.5,123.4L201.5,123.4z M214.5,156c0-0.9-0.1-1.8-0.2-2.8
	c2.3-0.1,4.6-0.1,6.8-0.1c3.8-0.3,7.6-1.3,11.1-3c0.1,1.4,0.1,2.7,0.1,4.1c-0.1,7-1.3,14-3.5,20.6c-4.2-1-8.5-1.6-12.8-1.7
	c-1.1,0-2.3,0.1-3.4,0.3C213.9,167.7,214.5,161.8,214.5,156z M232.6,175.8c1.7-7.1,2.6-14.3,2.5-21.6c0-1.8-0.1-3.6-0.2-5.3
	c3.7-1.8,7.4-4,10.9-5.7c1.6-0.8,3.4-1.1,5.2-0.8c1,0.1,1.8-0.6,1.9-1.6c0.1-0.8-0.4-1.6-1.3-1.9c-1.2-0.4-2.4-0.6-3.7-0.6
	c-4.9,0.7-9.4,2.9-13.8,5c-2.2-12.6-7.6-24.4-15.6-34.3c0.8-0.7,1.5-1.3,2.3-2c3.1-2.6,6-5.5,8.6-8.5c1.8-2,3.6-3.9,5.4-5.8
	c12.6,15.4,20.5,34.6,20.4,54.7c-0.1,11.6-1.9,23.1-5.1,34.3C244.4,179.7,238.5,177.5,232.6,175.8L232.6,175.8z M236.3,64.7
	c2.6,2.9,4.1,6.6,4.2,10.4c-0.1,3-1.4,5.9-3.6,8c-1.1,0.8-2.1,1.7-3.1,2.6c-3.3-3.7-6.9-7.1-10.7-10.3c-17.5-15.4-39.8-24-62.6-25.8
	c-1.1,0-2.2-0.1-3.3-0.3c0-0.5,0-1-0.1-1.5l0,0l0,0c0-0.1,0-0.1,0-0.2c-0.2-3.5,1-7,3.2-9.7c3.4-4.5,9.8-4.5,11.5-4.4
	C195.9,37.2,218.4,48.1,236.3,64.7L236.3,64.7z M135.2,33.6c3.5-0.3,7,0.5,10,2.2c1.9,1.3,3.5,3.1,4.4,5.3c1,4,2,7.7,2.1,8.2
	c0,0,0,0,0,0.1c-20.8,0-41.6,5.5-59.1,17c-2-2.8-3.1-6.1-3.1-9.5c0.1-3.9,2.2-7.5,5.5-9.6h-0.1C107.4,40.4,121.1,35.7,135.2,33.6z
	 M66.9,68.4c2.8-2.4,6.4-3.8,10.2-4c3.2,0,6,1.6,8.2,3.4c0.8,0.7,1.5,1.4,2.2,2.2c-5.4,4-10.3,8.5-14.7,13.6
	c-15.5,16.7-23.3,37.3-25,58.7c0,0-7.7-1-11.5-6.2c-1.6-2.4-2.3-5.4-1.8-8.3c0.3-1.3,0.6-2.7,0.9-4c0.1-0.2,0.1-0.3,0.1-0.3
	l-0.1,0.2C40.8,102.6,51.7,83.6,66.9,68.4z M31.9,162.8c-0.1-3.9,1.1-7.7,3.5-10.8c3.1-3.8,8.1-4.1,10.6-4h0.5l0.9,0.1h-0.2h0.2
	c-0.3,18.1,3.2,36.1,10.4,52.8c1.3,3,2.7,5.9,4.3,8.7c-0.2,0.1-0.4,0.2-0.6,0.4c-3.4,1.7-7.3,2.1-11,1.3c-5.1-1.3-8.1-6.7-9.1-8.8
	C36.1,189.8,32.8,176.4,31.9,162.8z M64,236.8c-2.3-3.2-3.5-7.1-3.6-11c0.1-3.6,1.8-6.9,4.6-9.1l1-0.8c12.5,18.5,31.1,32,52.5,38.1
	c9,2.7,18.3,4.4,27.7,5.1v0.1c0.1,4-1.3,7.9-3.8,11c-3.6,4.2-9.6,4-11.5,3.8C105.3,269.1,81.8,256.1,64,236.8z M146.4,218.8
	c-0.1-0.7-0.2-1.3-0.3-2c0-0.2-0.1-0.4-0.1-0.7c3.6,0.3,7.1,0.4,10.7,0.3c20,0.4,36.1-13.1,48.6-27.3c2-2.7,3.6-5.7,4.9-8.8
	c0.4,0,0.8,0.1,1.2,0.1c5-0.5,10-0.1,14.8,1.2c-2,4.9-4.3,9.7-6.9,14.3c-4.9,11.1-13.9,20.2-24.1,27c-2-2.6-4-5.1-6.2-7.5
	c-0.7-0.7-1.8-0.7-2.5,0c-0.5,0.5-0.7,1.4-0.3,2.1c1.5,2.7,3,5.5,4.5,8.3c-0.7,0.4-1.4,0.8-2,1.2c-11.8,6.4-25.2,7.5-38.3,6.3
	C149.7,228.1,147.4,224,146.4,218.8L146.4,218.8z M168.3,275.2c-4-0.2-7.9-1.6-11-4.1c-2-1.7-3.3-4.1-3.8-6.7
	c-0.1-0.8-0.1-1.6-0.2-2.4s-0.1-1.8-0.1-2.6c16,0.3,31.9-2.7,46.1-10.2c1.1-0.5,2.1-1.2,3.1-1.8l0.7,1.4l0.6,1.3
	c1.3,2.9,1.6,6.2,0.9,9.3c-1.1,5.3-5.9,7.9-7.5,8.6C187.9,271.6,178.2,274,168.3,275.2L168.3,275.2z M229.6,249.4
	c-3.4,2.1-7.3,3.1-11.2,2.8c-6.6-0.6-9.5-6.9-9.5-6.9l0.1,0.4c-0.3-0.6-0.5-1.2-0.8-1.8c19.8-12.9,34.6-32.4,42.9-54.5l3.1,0.8
	c3.5,1.3,6.5,3.8,8.4,7.1c3.2,5.7-0.7,12.6-0.7,12.6l0.1-0.2C254.2,225.1,243.1,238.6,229.6,249.4L229.6,249.4z"/>
</svg>
