<?xml version="1.0" encoding="utf-8"?>
<!-- Generator: Adobe Illustrator 25.2.3, SVG Export Plug-In . SVG Version: 6.00 Build 0)  -->
<svg version="1.1" id="Layer_1" xmlns="http://www.w3.org/2000/svg" xmlns:xlink="http://www.w3.org/1999/xlink" x="0px" y="0px"
	 viewBox="0 0 50 40" style="enable-background:new 0 0 50 40;" xml:space="preserve">
<g transform="translate(0.000000,100.000000) scale(0.019531,-0.019531)">
	<path d="M1547.6,5031.7c-84.6-12.9-173-50.9-213.2-90.5c-13.9-13.9-24.6-25.7-24.1-26.8c1.1-0.5,18.7,3.2,39.1,8.6
		c70.2,18.7,145.2,11.2,202.5-19.8c31.6-17.1,40.7-34.3,47.1-83c5.9-48.7,21.4-81.4,51.4-112.5c34.8-35.4,79.3-54.6,127.5-54.6
		c32.1-0.5,42.9,2.1,73.4,17.1c68,33.2,103.4,92.1,99.6,167.1c-3.7,84.6-60,146.8-162.3,180.5c-38.6,12.3-52.5,16.2-129.8,22.7
		C1609,5041,1556.7,5033.3,1547.6,5031.7z"/>
	<path d="M530.3,4239c28,7.6,75.7,4.2,76.3,4.1l98.1-10.1l-14.5,12.9c-38,33.7-131.2,52-215.3,41.2
		c-243.2-30.5-429.1-218-469.3-474.1c-8.6-54.1-7-150.5,2.7-198.7c47.1-228.2,243.2-418.9,470.9-458.5c49.8-8.6,211.6-3.2,265.7,8.6
		c109.3,24.1,206.8,84.6,325.7,202.5c76.1,74.5,117.9,124.3,307.5,360c206.2,256.6,278,327.3,381.9,377.7
		c58.9,28.9,106.1,39.1,174.1,39.1c251.2-1.1,433.4-145.7,466.6-372.3c8.6-57.9,3.2-151.6-10.7-201.4
		c-50.9-176.2-198.2-304.8-382.5-333.7c-121.1-18.7-250.7,23-371.2,119.5c-47.7,38-54.1,37.5-34.3-3.7
		c31.6-65.4,146.8-145.2,254.4-176.8c286.6-83,584.4,79.3,677.1,369.6c23.6,72.9,28.9,120,25.7,210c-3.2,96.4-16.1,146.8-60,234.6
		c-75,151.1-206.2,257.1-369.1,297.8c-62.1,16.1-212.7,20.4-278,8c-74.5-14.5-139.8-38-227.7-83.6c-45-23.6-87.3-42.9-93.7-42.9
		c-34.8,0-334.3,207.3-430.7,298.4c-40.7,37.5-42.9,50.4-15,81.4c31.6,34.8,114.1,63.2,213.2,73.4l35.9,3.8l43.4-46.1
		c78.2-84.1,165.5-139.3,259.3-165c61.6-16.6,176.2-20.4,238.4-7.5c118.9,24.1,249.6,86.8,273.2,131.2c4.3,8,1.1,8-30-3.8
		c-80.9-28.9-125.9-35.9-235.2-35.9c-89.5,0-107.1,1.6-144.6,12.3c-117.3,33.2-207.8,116.8-257.7,237.8c-9.6,24.1-19.3,52-21.4,61.6
		c-3.2,15.5-4.8,17.1-23.6,17.1c-10.7,0-41.2,1.1-67.5,2.1c-26.2,1.6-72.9,0.5-103.9-2.1c-113.6-9.6-218-38-308-84.6
		c-58.9-30.5-120.5-88.9-143-135.5c-31.6-65.9-31.6-143.6,1.1-212.1c22.5-48.2,85.7-110.9,168.7-166.1
		c86.8-57.9,136.1-98.6,193.4-158.6c56.2-58.9,87.9-109.3,87.9-139.3c0-40.7-55.2-124.8-205.2-310.7
		c-117.3-145.7-186.4-210-267.3-250.2c-144.6-70.7-306.9-60.5-439.3,27.9c-159.1,106.6-235.2,310.2-186.4,499.8
		c30,117.3,120.5,234.1,224.5,288.7C468.2,4227.4,530.3,4239,530.3,4239z"/>
</g>
</svg>
