<?xml version="1.0" encoding="utf-8"?>
<!-- Generator: Adobe Illustrator 25.2.3, SVG Export Plug-In . SVG Version: 6.00 Build 0)  -->
<svg version="1.1" id="Ebene_1" xmlns="http://www.w3.org/2000/svg" xmlns:xlink="http://www.w3.org/1999/xlink" x="0px" y="0px"
	 viewBox="0 0 350 350" style="enable-background:new 0 0 350 350;" xml:space="preserve">
<path d="M240.8,33.3c3.2-3.7,3.2-3.7,7.6-1.6c5.3,2.5,5.3,2.5,3.9,8.3c-1.9,7.9,1.8,15,9.1,16.9c4.8,1.3,9-0.4,12.9-3.2
	c3.7-2.6,3.7-2.6,7.3,0.3c4.7,3.9,4.7,3.9,1.9,9.2c-2.8,5.3-2.9,10.6,0.9,15.4c3.8,4.9,9,5.4,14.7,4.1c1.2-0.3,2.5-0.7,3.6-1.3
	c2.2-1.2,3.7-0.6,4.9,1.5c1,1.7,2.1,3.2,3.2,4.8c1.1,1.5,0.8,2.6-0.6,3.7c-0.9,0.7-1.7,1.4-2.4,2.2c-3.9,4.2-5.3,9-3.2,14.4
	c2.1,5.4,6.4,7.8,12,8.1c2,0.1,4.1,0,6-0.4c2-0.4,2.9,0.3,3.4,2c0.1,0.4,0.3,0.8,0.5,1.3c0.7,2.2,2.3,4.6,1.8,6.4
	c-0.4,1.6-3.2,2.5-5,3.8c-4.6,3.2-7,7.6-6.1,13.2c0.9,5.6,4.5,9.1,9.9,10.6c1.8,0.5,3.8,0.8,5.7,1c1.8,0.1,2.6,1,2.7,2.7
	c0,0.5,0.1,0.9,0.2,1.4c0.1,2.3,1.1,5,0.2,6.7c-0.9,1.5-3.8,1.8-5.9,2.6c-5.4,2-8.8,5.7-9.1,11.5c-0.4,5.8,2.5,10,7.4,12.8
	c1.3,0.8,2.8,1.5,4.3,1.9c2.3,0.6,2.6,1.9,2.4,4.1c-0.8,7.7-0.7,7.8-8.3,8.5c-5.7,0.6-10.2,4.2-11.6,9.4c-1.4,5.2,0.8,11.1,5.6,14.8
	c4.8,3.7,4.8,3.7,2.5,9.4c0,0.1-0.1,0.2-0.1,0.3c-1.9,4.3-1.8,4.3-6.5,3.2c-3.8-0.9-7.7-1-11.2,1c-6.1,3.4-8.3,10.8-5,17.1
	c1.1,2,2.4,3.9,3.9,5.6c1.4,1.6,1.7,2.9,0.3,4.5c-0.2,0.3-0.4,0.6-0.7,0.9c-1.5,1.8-2.7,4.6-4.6,5.2c-1.6,0.5-4-1.4-6-2.3
	c-5.3-2.3-11.4-1.4-14.9,2.1c-4.7,4.6-4.7,10-2.6,15.7c0.2,0.7,0.6,1.4,0.9,2c1.8,3.8,1.8,3.8-1.3,6.4c-0.1,0.1-0.3,0.2-0.4,0.4
	c-4.9,4-4.9,4-9.9,0.1c-7-5.5-15.6-4.7-20,2c-2.7,4.1-2.8,8.7-1.3,13.2c0.9,2.9-0.1,4.2-2.6,5.1c-2.2,0.8-4.6,2.7-6.6,2.3
	c-1.7-0.4-3-3.2-4.5-4.9c-3.7-4.3-8.4-6.6-14.1-5.3c-5.7,1.3-8.6,5.5-9.7,11.1c-0.4,1.9-0.1,3.9-0.5,5.7c-0.2,0.8-1,2-1.7,2.2
	c-2.6,0.7-5.4,1.2-8.1,1.4c-0.7,0.1-1.8-0.9-2.2-1.7c-1-2-1.6-4.3-2.7-6.3c-2.7-4.6-6.9-6.7-12.1-6.6c-5.1,0.1-8.5,3.1-10.8,7.4
	c-1,1.7-1.6,3.7-2.1,5.6c-0.5,2-1.6,2.7-3.5,2.5c-2.2-0.2-4.4-0.4-6.6-0.5c-1.9-0.1-2.2-1-2.6-2.8c-0.6-3.5-1.1-7.2-2.8-10.1
	c-4.4-7.3-13.7-8.2-19.7-2.1c-1.6,1.7-3,3.7-4.1,5.8c-1,1.8-2.1,2.2-4,1.5c-2-0.8-4.1-1.6-6.2-2.2c-1.8-0.5-1.9-1.6-1.8-3.3
	c0.2-3.5,0.7-7.2-0.3-10.5c-2.5-8.6-12.6-11.6-19.7-6.1c-1.3,1-2.6,2-3.7,3.3c-1.7,2.1-3.3,2.3-5.3,0.7c-0.2-0.2-0.5-0.3-0.7-0.5
	c-1.9-1.3-4.6-2.3-5.3-4.1c-0.6-1.5,1.1-4,1.8-6c2.1-5.8,0.7-12-3.5-15.6c-4.1-3.6-9.8-3.9-15.4-1c-5.6,2.9-5.6,2.9-9.9-1.9
	c-0.4-0.5-0.8-1-1.2-1.5c-1.6-1.6-1.6-2.9,0-4.6c3-3.2,4.9-7,4.8-11.6c-0.2-7-5.5-12.3-12.5-12.2c-1.6,0-3.3,0.2-4.9,0.6
	c-5.5,1.3-5.5,1.3-8.1-3.8c-0.1-0.2-0.3-0.5-0.4-0.7c-2.1-4.3-2.2-4.3,1.6-7.1c3-2.3,5.2-5.2,6.1-8.8c1.9-7.6-3-14.6-11-15.5
	c-1.3-0.1-2.6-0.1-3.8-0.1c-4.5,0-4.5,0-5.7-4.5c-1.6-6.3-1.6-6.3,4.1-9.2c8.6-4.3,11.3-14.6,5-20.9c-2.3-2.3-6.1-3.6-9.4-4.5
	c-2.6-0.7-3.8-1.7-3.4-4.4c0-0.3,0-0.5,0-0.8c0.1-2.3-0.5-5.1,0.7-6.7c0.9-1.3,3.9-1.2,6-1.7c6-1.4,10.4-6,11.2-11.5
	c0.7-5.3-1.9-10.1-7.4-13.3c-5.2-3-5.2-3-3.5-8.9c0.1-0.2,0.1-0.4,0.1-0.5c1.3-4.4,1.3-4.4,5.8-4c4.1,0.4,8.1-0.1,11.4-2.8
	c6.5-5.2,6.6-13.7,0.2-20.1c-4.1-4.2-4.1-4.2-1.1-9.3c0.1-0.2,0.3-0.5,0.4-0.7C40,87.6,40,87.6,44,89c1.4,0.5,2.8,0.9,4.2,1.1
	c5.5,0.6,10.3-0.8,13.4-5.6c3.5-5.5,2.2-10.9-1.1-16c-2.4-3.7-2.4-3.7,0.6-6.7c1.5-1.5,2.9-3.7,4.6-4c1.6-0.3,3.6,1.5,5.3,2.5
	c9.9,5.5,20.9-0.1,20.6-10.6c-0.1-2.6-0.8-5.2-1.7-7.7c-0.6-1.8-0.3-2.8,1.2-3.6c2-1.2,4.1-2.4,6.1-3.7c1.4-0.9,2.3-0.6,3.2,0.6
	c0.4,0.6,0.9,1.2,1.4,1.7c4.5,5.2,11,7,16.5,4.7c5.2-2.2,8.3-8.1,7.7-14.8c-0.4-4.5-0.4-4.5,3.8-5.8c0.2-0.1,0.3-0.1,0.5-0.2
	c5.6-1.7,5.6-1.7,8.6,3.3c2,3.4,4.8,6,8.7,7.1c7.6,2.1,14.1-1.9,16.4-10.1c0.6-2,0.6-4.8,2-5.9c1.3-1.1,4-0.7,6.1-0.9
	c4.4-0.5,4.4-0.5,5.2,4c0.7,3.6,2.2,6.8,5,9.2c6.7,5.6,15.4,3.8,20.1-4.1c0.3-0.5,0.5-1,0.8-1.5c2.4-4.8,2.4-4.8,7.8-3.7
	c0.3,0.1,0.5,0.1,0.8,0.2c4.5,1,4.5,1,4.4,5.7c-0.3,9.5,6.3,16.3,14.6,15.2C234.5,38.9,237.7,36.9,240.8,33.3z M149.6,201.4
	c15.1,14,39,13.1,53-2.1c14-15.1,13.1-38.3-2.1-52.5c-15-13.9-38.8-13-52.8,2.2C133.5,164.2,134.3,187.3,149.6,201.4z M266.8,259.6
	c4.7-6.5,9.4-12.5,13.6-19c2.8-4.3,2.3-9.3-1-13c-2.4-2.7-5.7-5-9.1-6.3c-12.2-4.8-24.5-9.1-36.8-13.7c-5.6-2.1-10.6-1.2-15.2,2.4
	c-3.4,2.6-6.2,5.7-7.3,10c-0.9,3.6-0.9,7.2,0.7,10.8c5.6,12.9,11,25.9,16.5,38.9c0.6,1.5,1.6,2.9,2.7,4.1c4.4,4.8,11.8,5.3,17.9,0.6
	C255,269.8,260.9,264.5,266.8,259.6z M136.2,214.1c-5-4.9-11-5.3-17.3-2.8c-7.5,2.9-14.9,6.1-22.3,9.3c-5.8,2.5-11.7,4.8-17.3,7.7
	c-6.2,3.1-9.2,11.1-6,16.4c9,15.1,21.7,26.6,36.7,35.5c4.4,2.6,9.3,1.8,13-1.8c2.3-2.3,4.3-5.3,5.5-8.3c4.6-11.7,8.8-23.6,13.2-35.5
	C144.6,226.4,142.9,220,136.2,214.1z M214.6,135.5c4.9,4.8,10.8,5.3,16.7,3c13.4-5.2,26.6-10.8,39.7-16.6c6.2-2.7,8.4-8.8,6.2-15.2
	c-0.7-2.1-1.7-4.3-2.9-6.2c-5.8-9.1-13.8-16.1-21.9-22.9c-3.9-3.3-8.4-5.8-13.3-7.5c-4.8-1.7-9.2-0.9-12.6,2.7
	c-2.1,2.3-3.8,5.2-5,8.1c-4.6,11.7-8.6,23.5-13.3,35.1c-1.9,4.7-1.4,8.8,1.1,12.7C210.9,131.2,212.8,133.3,214.6,135.5z M82.5,91.8
	c-4,5.4-7.6,10.2-11.1,15.1c-3.1,4.3-2.8,8.9-0.8,13.5c1.8,4.1,5.4,6.2,9.3,7.6c12.4,4.6,24.9,9.1,37.4,13.6c4,1.5,8.1,1.2,11.6-1.1
	c5.2-3.4,10.9-6.6,11.4-13.8c0.2-2.9-0.3-6.1-1.4-8.8c-5-12.4-10.1-24.7-15.4-36.9c-3.4-7.7-10.4-10-18-6.3
	c-0.7,0.4-1.5,0.7-2.2,1.2C96.1,81.3,89.1,86.7,82.5,91.8z M165.1,233.9c-2.8,3.9-4,8-3.9,15.2c0.2,11.4,0.6,22.8,0.9,34.3
	c0.1,5.7,1.8,10.7,7.2,13.1c6.1,2.8,12.7,3.2,18.7-0.5c4.5-2.7,5.9-7.4,5.8-12.4c-0.1-13.7-0.4-27.4-0.9-41.1
	c-0.2-5.5-4.2-10.4-9.3-11.3c-3.7-0.7-7.7-0.8-11.4-0.4C169.8,231.2,167.5,232.9,165.1,233.9z M235.6,184.4
	c2.7,2.6,6.6,3.6,10.7,3.5c13.6-0.2,27.2-0.5,40.8-0.9c4.1-0.1,7.5-2.1,9.5-5.6c3.5-6.2,3.5-12.7,0.1-18.9
	c-2.9-5.3-8.2-6.5-13.7-6.5c-12.8,0.1-25.6,0.6-38.4,0.8c-5.9,0.1-10.5,2.7-12.3,8.3C230.4,171.7,229.7,178.4,235.6,184.4z
	 M159.7,55.5c-2.5,3.1-3,6.4-2.9,9.7c0.1,13.4,0.4,26.9,0.8,40.3c0.1,2.3,1.1,4.6,2.1,6.7c3.4,7.4,21.6,8.3,26.1,1.7
	c2.3-3.3,3.4-6.9,3.3-10.8c-0.2-12.8-0.4-25.6-0.9-38.4c-0.2-5.8-3.3-9.3-8.8-11.3c-4.8-1.7-9.5-1-14.2,0.2
	C163.3,54,161.5,54.9,159.7,55.5z M55,167.8c-3.4,2.1-3.8,5.6-3.7,9.3c0,1.1,0,2.2,0.1,3.3c0.2,5.3,4,10.2,9,11.5
	c2.4,0.6,4.9,1,7.3,1c13.1-0.2,26.1-0.5,39.2-1c5.3-0.2,9.8-3.7,11-8.8c0.8-3.5,1.1-7.2,1-10.8c-0.3-5.2-3.2-8.7-8.3-10
	c-2.7-0.7-5.6-1.1-8.4-1c-11.8,0.2-23.6,0.6-35.4,0.9C62.2,162.2,58,163.7,55,167.8z"/>
</svg>
